<svg id="Layer_1" data-name="Layer 1" xmlns="http://www.w3.org/2000/svg" viewBox="0 0 822.24 131.39"><defs><style>.cls-1{fill:#fff;}</style></defs><title>forever-logo-white</title><path class="cls-1" d="M143.07,17.63v-.07h-.38A1.37,1.37,0,0,0,143.07,17.63Z" transform="translate(0 -0.11)"/><path class="cls-1" d="M175.66,119.55a9.13,9.13,0,0,1,.89-.38l-.61.13A.54.54,0,0,0,175.66,119.55Z" transform="translate(0 -0.11)"/><path class="cls-1" d="M178.5,119.13h0l-.63.25A4.88,4.88,0,0,0,178.5,119.13Z" transform="translate(0 -0.11)"/><path class="cls-1" d="M105.8,82.9Z" transform="translate(0 -0.11)"/><path class="cls-1" d="M142.86,110.47a1.5,1.5,0,0,0-.58,0C142.57,110.45,143.05,110.49,142.86,110.47Z" transform="translate(0 -0.11)"/><path class="cls-1" d="M142.14,110.44Z" transform="translate(0 -0.11)"/><path class="cls-1" d="M105.8,82.9a.17.17,0,0,1,0-.1A.1.1,0,0,0,105.8,82.9Z" transform="translate(0 -0.11)"/><path class="cls-1" d="M77.73,64.55a3.66,3.66,0,0,1-.07-.86,6.61,6.61,0,0,0-.06,1.18.09.09,0,0,1,.08.07C77.67,64.77,77.67,64.6,77.73,64.55Z" transform="translate(0 -0.11)"/><path class="cls-1" d="M215.79,73.86A25.84,25.84,0,0,0,216,71a1.2,1.2,0,0,1-1.06.46c0-.37.15-.32.3-.33,0-.46-.35-.49-.55-.7.21-.8-.14-1.55.22-2,0-.36-.19-.23-.2-.5s.18-.11.19-.33c.06-.58-.16-.64-.13-1.17-.2-.1-.37-.25-.32-.83.29-.38.16,1.37.29.33a2.8,2.8,0,0,0,0-.67c0-.41.14-.5.14-.68s-.12-.35-.14-.66a25.6,25.6,0,0,0-.31-3.68c0-.2.14-.16.25-.21a7,7,0,0,1-.23-3,5.63,5.63,0,0,0-.27-.82c-.06-.31.1-.43.08-.53s-.22-.2-.26-.3-.09-.79-.1-.85a4.25,4.25,0,0,0-.16-1c.14,0,.19.4.26.65.27.37-.21-1.11-.3-1.52-.12.44-.42-.42-.4.28-.29-.1.15-.37-.14-.85.14-.28.46.34.37-.09-.18-.66-.14.09-.38-.27s.16-.25.17-.4-.37-.84,0-.71a14.81,14.81,0,0,0-.85-2.27c-.25.18-.47-.24-.53.17a13.38,13.38,0,0,1-1.1-2.89c0-.15,0-.17.12-.23-.43-1.37-1.44-2.69-1.47-3.52-.39-.65-1.07-1.59-.69-1.79a7.78,7.78,0,0,1-.57-1.28c-.16-.3-.48-.63-.6-.88a3.45,3.45,0,0,1-.09-.55c-.07-.17-.18-.35-.27-.52a9,9,0,0,0,.92,1.43c-.06-.28-.38-.46-.65-1.08a8,8,0,0,1,1.33,2c.07-.15-.4-.92-.22-.93a29,29,0,0,1-1.82-3c-.05,0,.25.46.16.45-.58-1.09-.87-1.47-1.33-2.33a19.65,19.65,0,0,1-1.25-1.69.13.13,0,0,0-.05-.1A13,13,0,0,1,203.27,30a.17.17,0,0,1-.07.06c-.29-.46.25,0-.24-.59-.36.19-1.56-2.08-2.5-2.76-.12-.17-.18-.28-.12-.31l-3.3-3.5c-1-1-1.94-2-3.07-3,0,.09.12.22.14.31-.48-.53-.9-1-1.3-1.47,0,.07-1.5-1.09-1.47-1.31a12.61,12.61,0,0,1-2.49-1.9c-.52-.09-1.39-.93-2.1-1.33-.31-.23.19.07-.08-.18a3.08,3.08,0,0,1-1.07-.77c-.29,0-.9-.62-1.09-.49-.12-.16-.34-.33-.43-.24-.23-.28-.93-.54-.93-.7-.7-.17-2.07-1.23-2.64-1.43a2.8,2.8,0,0,0-.78-.63,16.24,16.24,0,0,1-2.82-1.48c-.5-.19.6.32.4.32-1.21-.62-2.52-1.21-3.85-1.77A1.41,1.41,0,0,1,174.6,7c.12-.31-.44-.85-.78-.62-.45-.28.53,0,.32-.38s-.82-.34-1.24-.5a5,5,0,0,0-.69-.37c-.83-.3-1.83-.48-2.76-.78-.37-.12-.46-.27-.7-.34-1.24-.37-2.75-.71-4-1.06a2.3,2.3,0,0,0-.81-.24l.25.1c-.41-.09-.78-.13-1.21-.21l-.79-.14-.52-.15a12.64,12.64,0,0,1,2.1.39c-.08-.16-1-.35-.92-.49a33.28,33.28,0,0,1-3.65-.74c0,.07.54.13.48.21-1.28-.34-1.78-.39-2.81-.67-1.07,0-2.44-.34-4.38-.5-.6-.12.2-.17-.66-.25-.06.43-2.74-.29-3.91,0-.21,0-.35-.06-.34-.12h-5a40.18,40.18,0,0,0-4.48.24,1,1,0,0,1,.36.12h-2.07a4.65,4.65,0,0,1-2.05.19,11.65,11.65,0,0,1-3.18.58,12.55,12.55,0,0,1-2.47.7c-.38.06.19-.11-.19-.08a3.12,3.12,0,0,1-1.34.29c-.21.19-1.09.25-1.09.49-.21,0-.51,0-.48.17-.38,0-1,.34-1.18.23a26.75,26.75,0,0,1-2.88,1,3.44,3.44,0,0,0-1,.16,15.23,15.23,0,0,1-3,1.15c-.48.26.64-.25.52-.09-3.59,1.38-7.4,3.54-10.74,5.08,0-.19.58-.4.48-.49-.69.34-.79.45-1.37.72,0,.12.31-.12.36-.08a2.2,2.2,0,0,1-.52.43c-.33.2.13-.17-.22,0a1.45,1.45,0,0,1-.72.45c-.54.36,0,.06-.07.2-.39.27-.46.2-.54.12-.31.19-.23.24-.2.3a38.9,38.9,0,0,0-5.71,4.29c-.33.28-.61.58-.49.48-.88.68-2.28,2-2.22,2.33-.4.06-.73.84-1.47,1.42.38,0-1,1.42-1.53,1.81a6.48,6.48,0,0,1,1.41-1.69c-.93.57-2.19,2.55-2.91,2.88C90.45,24.78,90,25.74,89,26.9c.16,0,.29-.09.11.29-.49.66-.2.06-.51.27a39.93,39.93,0,0,0-3.23,5c-.31.49-.09,0-.31.22-1,1.62-1.12,2.25-1.6,3a2.37,2.37,0,0,1-.4,1.13c.06,0,.16-.26.25-.44s-.08.35-.1.52-.07-.15-.36.58c.1,0,.26-.47.3-.23.38-.65.49-1.23.72-1.15.06-.89.93-1.42,1.43-2.69.19.3-.86,1.36-.75,1.71a5.11,5.11,0,0,0-.67,1.17c.08,0,.27-.5.37-.56a7.61,7.61,0,0,1-.65,1.36l.1-.32c-.14.19-.67,1.3-.38.94a6.78,6.78,0,0,1-.45.72c-.2.42-.18.56,0,.36-.17.36-.26.31-.12-.06-.28.41-.22.69-.5,1.45.18-1.08-.26.89-.48,1.26,0-.1,0-.2-.06-.22-.1.32.1.19-.11.69-.41.52-.85,2.48-1.46,3.78h.12a9.19,9.19,0,0,1-.32,1,1.46,1.46,0,0,1,0-.54c-.08.08-.14.64-.31,1,.09,0,.2-.45.29-.27a5.4,5.4,0,0,0-.33,1.49c-.11.43,0-.25-.17,0,0,.65-.09,1.44-.42,1.47-.08.9-.7,1.39-.92,3.26.18-.48.07-.11.1.2s-.18.39-.27.64a4.31,4.31,0,0,1-.12,1.2c.12,0,.12-.26.17,0a10.93,10.93,0,0,0-.37,1.32c.13-.09.22.14,0,.86.12.15,0,1.06.14,1,0,.46-.18.12-.17.67.15.1.14.2.25-.14a6.08,6.08,0,0,0,0,1c-.13.07-.06-.54-.23-.38v1.45a2.57,2.57,0,0,1,.15,1.64h0c0,.15,0,.16-.09.16h-.07c0,.6.16.51.25.69,0-.69.13-.51.1-1.19a4.85,4.85,0,0,1,.09.69c0-.23.05-.44.31-.49-.2.81,0,1.15-.16,1.84C78,64.2,78,64,78,63.88a5.24,5.24,0,0,0,0,.68h0a.19.19,0,0,0,0,.07,2.28,2.28,0,0,0,0,.26v-.06a2.12,2.12,0,0,1-.06.43c0,.49-.08.51-.06,1,.09,0,.09-.2.17-.16-.43,2,.35,3.78.3,6,0-.61.14-.33.15-1,.07,0,.1.33,0,.34.36-.15.45,1.82.59,2.86a7.4,7.4,0,0,0,0-1.52c.13.29.35,1.31.11,1.18a8.76,8.76,0,0,1,.25,1.35c.16.47-.16-.91,0-.85A13.34,13.34,0,0,1,80,76.8a3.45,3.45,0,0,0,.16.67,9.81,9.81,0,0,0,.59,1.81,4.37,4.37,0,0,0,.1.84c.35,1.17,1.21,3.62,1.66,5.42.09.14.14.08.24.3,0-.27-.24-.37-.34-.8.26.1.68,1.27.91,1.9-.08-.1-.19-.36-.25-.3a10.24,10.24,0,0,1,1.12,2.54c.14.35.2.29.27.29.29.68.32.72.47,1.1,0,.09-.14-.09-.23-.28.12.69.61,1.11.92,2,.1-.14.42.61.6.71a35.46,35.46,0,0,0,2,3.8,42.08,42.08,0,0,0,2.67,3.91A31.51,31.51,0,0,0,93.23,104c.28.26.62.66.73.58a2.83,2.83,0,0,0,.64.84c.28.34-.21-.16-.14.07,1,1,1,1.61,1.85,2.52.08-.27-.64-.87-.82-1.33a15.67,15.67,0,0,1,1.6,1.65c0-.09-.06-.17,0-.2a7.72,7.72,0,0,0,1.68,1.78c.16.2-.09,0-.1.08a65.16,65.16,0,0,0,6.11,5.33c.17.16,0,.16,0,.22.82.64.94.74,1.56,1.16-.8-.41.8.6,1,.68s0,.16.17.32c.56.36,0-.24.6.13a9.78,9.78,0,0,0,1.64,1.32c.42.22-.55-.43-.68-.56s.86.48,1.4.8c.32.2,0,.15,0,.24a9.71,9.71,0,0,1,1.44.73c.39.29-.28,0,.06.21.61.17,1.93,1.07,2.85,1.45,0,0-.26-.18-.44-.28.2,0,.49.29.77.42a.87.87,0,0,1-.35-.11,14.3,14.3,0,0,0,1.75.86c.45.15-.41-.36.13-.19,0,.07,0,.23.71.5-.13-.16-.61-.42-.31-.47a.74.74,0,0,0,.34.14c.67.36-.29,0,.38.36-.13-.34.85.23,1.38.43a5.79,5.79,0,0,0-.92-.49c0-.1.54.13,1,.36a9.09,9.09,0,0,1-.9-.53,22.41,22.41,0,0,1,3.7,1.92c.36.14.91.29.94.44l.48-.14-.16-.07c-.13,0-.15-.09-.31-.16s-.08-.07,0-.08.25.12.35.15c-.15-.2.63,0,.25-.17s-.3-.06-.35,0l-.94-.7-1.24-.2,1.06.52a39.76,39.76,0,0,1-6.78-3.17,12.23,12.23,0,0,1-2.78-1.5c0-.09.94.63.82.37a10.67,10.67,0,0,1-1.16-.76c.28.52-1.71-.9-2.15-1.21.09-.07.65.35,1.07.62-1.3-1.19-3.48-2.21-5.11-3.63,0,.1-.43-.28-.5-.24-1.13-1.17-2.59-2.06-3.65-3.2a29.79,29.79,0,0,1-4.56-4.5c.12.08.2.08.26,0,.1.36.45.44.77.7a1.94,1.94,0,0,0,.33.4c-.26-.14-.73-.66-.89-.63a10.5,10.5,0,0,1,1,.94c.26,0,0-.31.65.38a6.09,6.09,0,0,0-.64-.81c.12-.08.82.61,1.35,1.14s.86.91.18.28c.23.38,1.57,1.39,1.16,1.26.85.87,1.21.9,1.89,1.53s.64.81,1.14,1.28c0,0,.08,0,.06-.07.32.31,1,1.08,1.24,1-.39-.2-1-.78-.86-.83.58.68,2.86,2.12,4.26,3.25.16.12.16,0,.21,0,1.61,1.28,3.92,2.41,5.26,3.32l.07-.1a4.41,4.41,0,0,0,1.48.88,8.18,8.18,0,0,0-1.14-.76,16.23,16.23,0,0,0,2.5,1.19s0,.1-.21,0a7.42,7.42,0,0,0,1.44.61c.14.11,1.06.6.54.43.79.37,1.65.77,2.53,1.16l.37.32.52.07.18.07h0a12,12,0,0,1,1,.71l-.43.12-.29-.12h0c.11,0,.17.08.26.12h-.11a1.74,1.74,0,0,0,.42.12c.52.32.75,0,1.56.13-.41.17-.16.42,0,.56,0-.06.45.07.46.14-.25-.06,0,.07.3.13-.31-.17.91-.13,1,.12a5.85,5.85,0,0,0-1.18-.08.32.32,0,0,1,.26.09c.37.14.66.3,1,.44.78.19,1.62.46,2.43.74a2,2,0,0,1,.35.11c0-.15.27,0,.61.22a6.36,6.36,0,0,0,.12.72,9.73,9.73,0,0,1,3,0,8.12,8.12,0,0,1,.85-.07c1.19.21,3.87,1,3.85.38.58,0,.07.17.46.19s.57,0,.52-.2c-1.5-.55-3.64-1.05-5.17-1.71.46,0,1.12,0,1.2-.26,1.71.23,3.4,1.84,4.56,2.23s.08.46,1.88.48c-.13.1,0,.1.29.06,1,.84,3,2.36,2,.77,1.94-.85,1.7.17,6.4.07,0-.66.6-.65.61-1.26.42.12.72.25.68.31l.93-.14a.59.59,0,0,0,.63,0l-.12-.06,1.34-.16c-.22.12-.27.56-.38.9,1,.17,1.8,2.29,2.65,1,.22-.49-1.13-.14-.6-.81.36-.56,1.55.46,1.51-.81-.73-.14-1.09.06-1-.74l1.16.35c-.4-2.48,1.82-2.41,2.6-4.44-.81-.14-.63-.8-1.06-1.14a3.57,3.57,0,0,0,.49.08s0,.11.23.14a6,6,0,0,0,1.34.08c-.42,0-.43-.09-.23-.13,1,.13,2,0,3.09.18,0-.22.76-.13,1.49-.17,0,0-.11-.13.14-.17a2,2,0,0,1,.62.09c-.33,0-1.1.18-.53.18,0-.1,1.31-.11,1.29-.22a1.56,1.56,0,0,1-.61,0c.5,0,.37-.12,1.11-.19.05-.11,0-.22.28-.32.52.11,1-.26,1.63-.4H170a2.76,2.76,0,0,0,.68,0,1.58,1.58,0,0,1,.5.08,6.59,6.59,0,0,0,.89-.3,1.27,1.27,0,0,1-.6,0l.12-.06.22-.07a15.61,15.61,0,0,1,2.34-.19,7.05,7.05,0,0,1,2-.33,5.19,5.19,0,0,0,.85-.32,2.46,2.46,0,0,0,1.15-.11,2.5,2.5,0,0,0-.34.24c-.34.11-.36.07-.22,0-1.25.62-2.33,1-3.43,1.44a1.62,1.62,0,0,0-.37.22h-.09c-.07,0-.55.16-.53,0-.14.16-.82.36-1,.51a4,4,0,0,0-.43.19c-.69.12-1.14.11-1-.18a20.88,20.88,0,0,0-4.92,1.44c-.16.19-.17.34-.08.44l-1.57.46c.45-.12,1.11-.22,1.73-.35a3.45,3.45,0,0,0,1.56,0c2-.36,4.08-1.49,5.61-1.76.53-.23,2.16-.79,2.88-1.19h-.06c.89-.34,1.78-.7,2.65-1.07.69-.3,1.38-.61,2.05-.93.94-.28,1.66-.49,1.49-.29a23.58,23.58,0,0,1,2.45-1.2c0-.14-.43.06-.32-.15a3.7,3.7,0,0,0,1.2-.61c-1.28.51-1.34.81-2.4,1.26,0-.09,0-.12-.16-.11,1.77-.9,3.45-1.84,5-2.76a25.91,25.91,0,0,0,2.92-2.17.26.26,0,0,0,.17,0,4.5,4.5,0,0,1,.38-.4,6.65,6.65,0,0,0,1.05-.73h0l.21-.18c-.16.39.85-.61.81-.37.56-.54,1.39-1,1.57-1.28-.84.62-1.31,1.11-1.68,1.17a22.51,22.51,0,0,1,2.2-1.6,17.57,17.57,0,0,1,2.15-1.91c-.07-.18.7-.58.94-1,0-.09-.26.1-.08-.08a6.11,6.11,0,0,1,.63-.61c0,.09-.06.16.08.18.36-.2.33-.36.31-.53a3.51,3.51,0,0,0,.43-.44c-.15.14-.29.27-.3.19.35-.39.4-.31.75-.69,0-.08-.24.12-.46.32-.09-.09-.21,0-.31,0,.24-.47.83-.53.76-.9.14-.13.24,0,.34.05a9.28,9.28,0,0,1,1.31-2c-.13,0-.32.38-.46.29-.12-.34,1.44-1.24.64-.36.23.07.54-.64.8-.88-.21-.06-.15-.24-.23-.36.13-.14.13,0,.08.06.53-.13.68-1.5,1.23-1.4.33-.41,0-.47.39-.93.22,0,0,.29-.11.51.27,0,.52-.81.56-1s.17.35.52-.28c.23-.27,0-.34-.07-.43.22-.5.74-.77,1.11-1.29.06-.07,0-.21.08-.33s.23-.19.26-.24c.2-.36.51-1,.88-1.61.16-.27.4-.75.54-1s.59-.62.51-1A.93.93,0,0,1,209,93l.24-.07s.07-1.24.63-1.18c.28-.6.47-.92.85-1.83.08-.17.35-.63.33-.59.07-.2-.08-.3,0-.53.17-.5.46-.32.28-.78l.43-.38c.86-2.32,1.57-4.62,2.24-6.69a.71.71,0,0,0-.21-.38,16.93,16.93,0,0,0,1.35-4.71c0-.45.38-.09.36-.63-.31,0-.37-.26-.43-.57.31-.09.15.48.44.39.06-.42.1-.81-.1-.86A.41.41,0,0,1,215.79,73.86Zm-8.26-37c.16.19.45.53.4.69-.07,0-.45-.55-.4-.65ZM83.79,35.39c-.18.38-.36.75-.45.72.08-.2.1-.34,0-.36a7.68,7.68,0,0,0,.5-1.09c.2-.08-.19.51-.31.8C83.77,35.24,83.58,35.61,83.79,35.39ZM84.33,34a2.7,2.7,0,0,1,.56-1A3.08,3.08,0,0,1,84.33,34ZM78.1,53.72c.09,0-.09.71-.14.81C77.84,54.38,78,54,78.1,53.72Zm-.43,3.63c0-.2.06-.48,0-.52,0,.25,0,.63-.11.67a4.64,4.64,0,0,1,.14-1c.06.18.22.73.13.89C77.86,56.87,77.74,57.53,77.67,57.35Zm.14,2.43c0,.22.07.16.07.35v.34c0,.16-.07-.25-.12-.36,0,.25-.07,0-.08-.19C77.73,59.94,77.77,59.86,77.81,59.78ZM77.6,61c0-.71.22-.4.3-.13C77.77,61.1,77.75,61.07,77.6,61Zm.19-3.14c.35,0,.32.54.34,1-.35-.08-.34-.58-.34-1ZM192,18.21c-.17-.14-.15,0-.3-.16a3.1,3.1,0,0,0-.71-.67.38.38,0,0,0-.06-.19ZM178.66,9.69c.18.24-1.2-.43-1.06-.49S178.25,9.56,178.66,9.69Zm-6.39-3.8a2.54,2.54,0,0,1,1.24-.12c.18.43-.6.07-.83.08-.07,0,0,.16-.06.18a2.32,2.32,0,0,1-.38,0c-.25,0-.48-.15-.73-.17C171.41,5.46,172,5.8,172.27,5.89Zm1,.59a.16.16,0,0,1-.15.13L171.65,6A5.82,5.82,0,0,1,173.27,6.48Zm-2.16-1.33-.9-.32C170,4.45,171.46,5,171.11,5.15Zm0,.62h-.06l-1.54-.62c.33-.06.81.32,1.14.17-.09.17.51.27.48.45ZM169,4.41c.18.07,1.05,0,.87.39-.37,0-1.87-.53-1.74-.88C168.57,4,168.57,4.24,169,4.41Zm-3.67-1.08.34.15-.31-.08c-.29-.09-.12-.06-.08-.07Zm.39,9a5.13,5.13,0,0,1-.85-.28h0c-.09-.06-.38-.13-.41-.19Zm-.29-4.1c.5.26,1.21.31,1.36.58a6.87,6.87,0,0,1-1.41-.62Zm.91,4.36Zm-2.87-5.2c0,.05.06.11.2.18-.11-.14.59.07.65.18-.43-.19-.35,0-.78-.19-.27-.15-.64-.35-.12-.21Zm-.78-3.79c0,.06.09.11.09.18a3.08,3.08,0,0,1-.68-.2,4.14,4.14,0,0,1,.54,0ZM162.14,13c0,.13-.72-.08-.7-.19.28.1.33,0,.65.15Zm-.2-10.75c-.11,0-.8-.1-.82-.19.2,0,.67,0,.77.15ZM160.25,19c-.2,0-.72-.12-.6-.22C159.88,18.85,160.4,18.92,160.25,19Zm-.49-11.41c-.33-.14-.88-.28-1.1-.4A3.37,3.37,0,0,1,159.76,7.59Zm-1.88-.53a11.31,11.31,0,0,1-1.63-.48c.5.19,1.54.32,1.63.48Zm-1,3.5c.32-.15.75.49.48.54s-.21-.31-.53-.39c.11-.05.17-.1.06-.15Zm-3.24-.25a.6.6,0,0,1,.46-.38,2.24,2.24,0,0,1,.88.57c.36,0-.12-.24.2-.28a6.93,6.93,0,0,1,1.34.24c.31.21-.67.27.13.44-.41.12-1.1-.48-1.47-.19-.42-.13-.61-.33-1-.46.43.27-.09.14-.53.06Zm1.72-8.17h.11a.78.78,0,0,1-.32,0V2.08c0-.06.12,0,.22.06Zm-.23.13a.36.36,0,0,0,0-.07c.13,0,.26.06.39.07l.15.17a1.37,1.37,0,0,0-.7,0l-.48-.08a4,4,0,0,0,.65-.09Zm-.89.31.36.08a1,1,0,0,1-.39,0h0l0-.08Zm.38,4c-.32-.08-.75,0-.9-.14.51,0-.47-.13-.36-.2a4,4,0,0,1,1.27.33ZM154.09,11c-.51-.16-.33,0-.72,0C153.23,10.75,154,10.84,154.09,11Zm-1.81-9.26c.13,0,.27,0,.42.06s.15.07.18.12h-.25a1.1,1.1,0,0,0,.28.08.12.12,0,0,1,0,.08L152.15,2c-.15-.22,0-.29.13-.31ZM152.49,6h-.13a.91.91,0,0,1,.37.13h.39c0,.11-.43,0-.67,0,0-.07-.35-.12-.11-.14a2.29,2.29,0,0,1-1.14-.22C151.67,6,152.14,5.86,152.49,6ZM151,9.59v.23c.34,0,.86-.23,1,.13.17,0,.13-.18.18-.28h.24c0,.07.14.09.23.12s-.41,0-.41.17a3.8,3.8,0,0,1,1.11.1c-.32.48-1.3-.21-1.95-.22a2.13,2.13,0,0,1-1.13.1c.32-.18,0-.47-.57-.44C149.77,9.18,150.5,9.77,151,9.59Zm-3.7-.22c.39.05.45-.12.87,0,0,.13.39.09.22.33a2.24,2.24,0,0,0,.87,0,.31.31,0,0,0-.23-.18c.44-.22.78.23.81.46-.85-.08-1.7-.14-2.56-.17.13-.29.13-.2.05-.44ZM150.24.62a8.77,8.77,0,0,1-1.89-.13C149,.51,149.61.56,150.24.62Zm-3.78.67c.32,0,.12-.12.51-.1l1,.15a.88.88,0,0,0,.33.06.52.52,0,0,1-.34.13h0a4.65,4.65,0,0,0-1.18-.06h-.72c-.26-.06-.68-.11-.33-.15a3.24,3.24,0,0,0-1,0c-.16,0-.11-.1-.17-.22C145.45,1.06,146.73,1.13,146.46,1.29Zm.41,7.37c0,.16-.53,0-.75.06,0-.21.59-.18.75-.06Zm-2.75.55c-.11.11-.09.3-.49.25l-.36.1a.28.28,0,0,1,.08-.28L142,9.61s.3-.27-.37-.16h-.14c.15,0,0,0-.19.06a12.27,12.27,0,0,1-1.57.09c-.21.09-.18,0-.16,0h0V9.55c0-.05.12-.1,0-.11a.38.38,0,0,1,0-.16H140c.09.07.23.11.22.26l.49-.05a1,1,0,0,0-.18-.24,11.09,11.09,0,0,0,1.41-.06c.2-.06,1.18-.19,1.48-.22l.64.19-.3.06a1.19,1.19,0,0,1,.38,0Zm-6.37,8.11c-.33,0-.72,0-.92,0a.79.79,0,0,0-.47.2c.07-.12-.49,0-1.08.12a7.45,7.45,0,0,1-1.32.27,16.87,16.87,0,0,1-2.08.56c.09-.28,1.61-.61,1.94-.6a9.85,9.85,0,0,1,2.33-.65c.07-.14-.43,0-.42-.07s.12-.09.1-.14a4.72,4.72,0,0,1,1.54-.18c1.32-.33,2.27-.36,3.52-.77a7.41,7.41,0,0,0,1.17-.05c.4-.08-.36,0-.53,0a7.65,7.65,0,0,1,1.33-.2v.05h0l.09.8c-1,.08-2,.15-3,.19a7.75,7.75,0,0,0-.85.27c-.24,0-.13-.13-.52,0,0,.25-.95,0-.83.25Zm-1.86.33a4.84,4.84,0,0,1-1.25.27,4.69,4.69,0,0,1,1.25-.27ZM133,10.78Zm.48-.13c0,.11.46.14-.07.29-.24,0-.41-.2,0-.29Zm3.05-2.19a1.85,1.85,0,0,0,.6-.07h.67c-.14.17-.05.21.4.12a.24.24,0,0,0-.08.33h0c-.77.08-1.48.18-2.07.29a1.19,1.19,0,0,0-.84,0l.18.17h-.14c-.52.08.28-.18-.16-.09l-.66.13a.6.6,0,0,0,0-.3,13.27,13.27,0,0,1,2.47-.36c.48-.25-.17-.17-.4-.22Zm1.12-.17.18-.06h0l-.21.06Zm1.44,1.48L139,9.7h.1c.49,0,1,0,.75.23-.54,0-.27,0-.71.12a4.78,4.78,0,0,0-.9.05.91.91,0,0,0,.55-.22ZM138.81,8h.65a1.51,1.51,0,0,0,.41-.06l.5-.07a.29.29,0,0,0-.17.28,2.12,2.12,0,0,1-.8-.09,2.7,2.7,0,0,1-.52.08A.41.41,0,0,1,138.81,8Zm-.53.27Zm.05-.09h-.42a2.26,2.26,0,0,1,.43-.11.18.18,0,0,0,0,.15Zm-2.1,1.95a6.3,6.3,0,0,0,1.42-.44.22.22,0,0,1,.24.14l-1.57.29A7.33,7.33,0,0,0,138,10a.3.3,0,0,0,.11.07c-.62.08-1.3.22-2,.35a.43.43,0,0,1,.12-.25Zm-.4-.18-.07-.23h.34a.3.3,0,0,1,0,.28Zm.49-.3h.05c-.05-.06.15-.09.25-.14a.27.27,0,0,1,.18.23c-.31.13-.39,0-.48,0Zm.7-.21h.4a.52.52,0,0,0,.07.32c-.32.05-.36-.14-.49-.28Zm-1.68,1.08Zm-.51-.44L134.6,10h0l.23-.05s.17.05,0,.17Zm-.22-.31.15.08-.42.07v-.1Zm.09,7.4a7.41,7.41,0,0,1-.73.22c-.14-.09.61-.24.73-.18Zm-.78-6.5h0Zm11.19-1.22c.25,0,.79-.37.74,0a8.81,8.81,0,0,1-1.72.11c.13-.26.69,0,1-.07Zm.17-8.11c-.39,0-1.32.07-1.19-.07.5.12,1,0,1.19.11Zm-.85-.18A18.15,18.15,0,0,1,142.55,1c.62,0,1.46-.16,1.7,0-1,.08-.08.13.18.2Zm-.88-.83h.22a.78.78,0,0,0-.23,0v0ZM142,.38h1.2a8,8,0,0,1-1.19,0S142,.4,142,.38Zm.91.91a11.87,11.87,0,0,1-1.35,0c.22-.06,1.33-.12,1.34,0Zm-5,6a12.25,12.25,0,0,1,3.5-.18h1.32l-.12.13-.87.1c-.87,0-1.31.09-2.27.15h0c-1.37.14-.9.32-3,.49a8.56,8.56,0,0,1,1.92-.41c.15-.07.13-.16.28-.22a16.43,16.43,0,0,0,2.27-.21,28.24,28.24,0,0,0-3.34.26c.16.11.28,0,.76-.06.19.25-.79.13-.87.35-.81.08.33-.38-.65-.19h.32l-.44.14a6.24,6.24,0,0,0-2.44.24c.08-.07.72-.23.45-.19A24.39,24.39,0,0,1,137.91,7.29ZM135.45.59c-.21,0-.14.09-.31.12a3.79,3.79,0,0,0-1,.07c0-.05-.1-.07-.2-.08Zm-1.55,10a5.32,5.32,0,0,0-1-.09.47.47,0,0,1,.17-.14,2.65,2.65,0,0,1,.65,0,1.63,1.63,0,0,1,.18.25Zm-.86-.43h.13a.08.08,0,0,1-.07,0Zm-.44-.75c.37-.11.74-.21,1.12-.3a1.57,1.57,0,0,0-.05.3l-1.14.23a.49.49,0,0,0,.07-.21Zm-.77,1,.44-.1a.74.74,0,0,0,.22.1s-.13,0-.14.07h.23a.13.13,0,0,1,.11.06,1.22,1.22,0,0,1-.89,0l0-.15Zm-.36.72h.19c-.18.08-.25.2-.54.24,0,0,0-.06-.08-.09s0-.28.2-.35a.53.53,0,0,0,.27.13c-.1,0-.18.08,0,.05Zm-1.93,8.28c.18,0,1.08-.42,1.12-.26-.4.15-.88.35-1.18.44.34-.12-.35,0,.06-.2ZM129,11.16a.35.35,0,0,0,.11-.09l.62-.11c0-.09.35-.18.52-.27h.33a.85.85,0,0,1,0,.61l-.42.16c.1-.18.2-.47-.1-.45a.51.51,0,0,0-.45.56h0a.14.14,0,0,1,0,.06s-.06.07-.06.11h0c-.18,0-.3,0-.32-.08h0c0-.14.19-.23.19-.37S129.11,11.25,129,11.16Zm-1,.44-.33.11a.33.33,0,0,0-.1-.22c.1-.05.24-.09.32-.14h0a1.75,1.75,0,0,0,.2.19.45.45,0,0,1-.14.07Zm.1.32a.4.4,0,0,0,.18.16,4.25,4.25,0,0,1-.75.11,1,1,0,0,1,.54-.27Zm.15,0,.6-.11a2.27,2.27,0,0,1-.57.22s-.07-.1-.06-.14Zm-.36-7.83c.1-.16.66-.13,1.11-.3.15.08-.78.21-1.14.27Zm.74-.34c.23-.11,1.07-.33.12-.18.16-.2,1-.21,1.63-.33a14.68,14.68,0,0,1-1.78.48Zm1.76,7.71a.94.94,0,0,1-.57.25c0-.06.15-.1.24-.15a1.31,1.31,0,0,1,.3-.13ZM130.21,19a2.92,2.92,0,0,0,.84-.27c.14.16-1.15.38-.87.24Zm.6-9,.38-.1.12.06-.45.07Zm.2,1.55.05-.06h.15Zm.43-8.21c-.39.14-.64.1-1.3.26-.07-.15,1-.3,1.27-.29Zm-.78-.74c-.6.06-.77.2-1.16.19s1.27-.42,1.13-.22Zm-1.48.29c-.37,0-1.1.07-1.27-.07.63-.12,1.28-.2,1.24,0ZM121.68,5c.07.06.45-.08.53,0-.45.15-1.06.41-1.13.32C121.59,5.15,121.44,5.1,121.68,5ZM120,5.75A3,3,0,0,1,119,6,1.54,1.54,0,0,1,120,5.75Zm-.19-.86c.3,0-1.12.63-1.08.47S119.44,5.12,119.81,4.89Zm.86.73a10.59,10.59,0,0,1-2,.75A16.28,16.28,0,0,1,120.67,5.62Zm-3.11,1.17a4.48,4.48,0,0,1-1.21.54c.2-.12.8-.31.73-.38-.23.08-.76.4-.77.31A3.48,3.48,0,0,1,117.56,6.79ZM112.5,9a8.22,8.22,0,0,1-1.5.73C111.33,9.61,112.26,8.87,112.5,9Zm-1.6.89a11.3,11.3,0,0,0-1.85,1.1c.2-.45,1.53-1,1.85-1.14ZM98.54,18.34c.18,0-1,1-.9.72C98,18.84,98.32,18.42,98.54,18.34ZM91.2,25.57c-.55.78,0,.12.24,0a12.86,12.86,0,0,1-1.27,1.35C90.54,26.4,90.91,25.64,91.2,25.57Zm-.53-1c.09.21-.35.8-.45,1.15C90,25.62,90.3,25.07,90.67,24.52ZM90,25.91c-.14.35-.37.45-.69,1C89,26.92,90,25.64,90,25.91Zm-1.26,2.82a2,2,0,0,1-.54.64c.06-.22.44-.74.52-.64Zm-1,.68v.2a2.64,2.64,0,0,0-.49.85l-.08.09c.14.2-.73,1.12-.25.82-.3.57-.53.6-.45.33.4-.66.37-.55.69-1.15a.41.41,0,0,0-.16.14Zm-1.11,2c-.3.52-.59,1.32-.84,1.46.22,0-.28.7-.33,1-.06-.16-.25.2-.31,0,.34-.8.94-1.51,1.49-2.49ZM78.39,52c.07-.29.12-1,.22-1-.08.47,0,1.35-.22,1.51C78.47,52,78.54,51.61,78.39,52Zm0,2.57c.44,0,.27,1-.13.73ZM78.26,68.7c0-.55-.29-.1-.15-.68,0,0-.06-.14,0-.18,0,.2.09.19.14.18a2.72,2.72,0,0,1,0,.63Zm.17-8.21v.24c-.09-.06-.15-.14-.12-.35h.14v.11Zm-.07-1.78.29-.22v.39a.25.25,0,0,1-.28-.22h0ZM78.61,67h.13v.67C78.67,67.69,78.65,67.29,78.61,67Zm.16-.17a4.19,4.19,0,0,1-.1-1h.12c0,.41.09,1,0,1Zm0-14,.15-.83H79c0,.23-.11.84-.23.75ZM79,55.46A1.55,1.55,0,0,1,79,55h.07v.61a.2.2,0,0,1,0-.11h0Zm.17,14L79,66.76A17.65,17.65,0,0,1,79,64a31.48,31.48,0,0,0,.12,3.24,9.24,9.24,0,0,1,0,2.26Zm0-13.75a7.58,7.58,0,0,1,.15-1,1.64,1.64,0,0,1,0,1.1.46.46,0,0,1-.18-.06Zm.27,16.61c0-.42-.21-1.31-.06-1.35,0,.58.2,1.16,0,1.39ZM80,51.09c-.09,0-.06-.21-.13-.2.18-.66.13-1.23.31-1.31,0,.42-.15,1-.21,1.55Zm.12-1.86c0-.24.2-1.16.32-1.12s0,.18.08.19c-.17.57-.29.89-.43,1Zm.42-.79a.82.82,0,0,1,0-.37.85.85,0,0,1,0,.41Zm.32.59c-.06-.12-.15-.22-.22-.34s.08-.42.12-.6c0,.17-.12.45.15.38s.44-.79.8-.7c-.2.92-.75.33-.88,1.3Zm.65-2.93-.12.21c-.16-.24.08-1,.41-.62l-.23.69a.16.16,0,0,1-.1,0c0-.11,0-.23,0-.24Zm.08,18.29a6.27,6.27,0,0,1,.13-2.32c-.11.47,0,1-.08,1.54,0,.35.1-.19.12.16a33.53,33.53,0,0,0,0,3.61,7,7,0,0,0-.22-1.16c0-.62,0-1.3,0-1.79Zm.37,12.09c-.07-.35-.35-.2-.35-.69.29-.25.39-.18.69.11.09.5-.18.52-.37.62Zm.66-34.27a.64.64,0,0,0-.24.37,1.75,1.75,0,0,1-.15.6h0a1,1,0,0,0-.13.37,3.8,3.8,0,0,0-.22.45,15.37,15.37,0,0,1-.68,1.9,5.79,5.79,0,0,0-.45.62,28.43,28.43,0,0,0-1,2.67c-.11.47-.22,1-.31,1.61-.38.15-.44,1.35-.63,1.75v-.31c-.06.25-.13.49-.2.75a19.4,19.4,0,0,1,.35-2.13s.06,0,.08.11a2.37,2.37,0,0,1,.15-.4c.11-.48.17-1,.24-1.43.34-1,.65-2,1-3.09a.58.58,0,0,1,.09-.37v0c.13-.41.25-.82.38-1.22a22.61,22.61,0,0,1,1.85-4.46,21.92,21.92,0,0,1,1.65-3.88c0,.3-.81,1.68-.72,2,.17-.36.59-1.28,1-2A5.6,5.6,0,0,1,85.36,35c-.07,0-.12-.09,0-.35s.23-.25.4-.53a4.63,4.63,0,0,1,.76-1.53c.44-.7,1-1.44,1.23-1.81-.07.1-.13.13-.16.1.23-.21.64-1.22,1.11-1.62-.22.3-.34.51-.3.57.52-.46.18-.53.65-1.11.11,0-.24.4-.18.46.31-.47.75-1.06,1.22-1.67a4.66,4.66,0,0,1,.46-.57c.54-.67,1.07-1.31,1.41-1.76,0-.23-.37.38-.35.16s.51-.67.56-.6-.17.19-.17.3a55.16,55.16,0,0,1,5.61-5.71,32.6,32.6,0,0,0,2.5-2.12c1-.69,2.41-1.93,3.76-2.88,2.14-1.54,4.54-2.8,6.39-4,.06,0,.07.12.36-.06,0-.06-.14-.09,0-.2a8.63,8.63,0,0,1,.8-.33,2.43,2.43,0,0,1,.53-.25l-.19.13a2.48,2.48,0,0,1,.48-.09,2.65,2.65,0,0,1,.48-.45c-.27.11-.68.45-.89.43a2.52,2.52,0,0,1,.7-.43c.74-.08.31-.05,1.28-.42a.94.94,0,0,0-.41.26c.62-.42,1.79-.7,2.4-1.09-.83.28-1.06.43-1.74.62.78-.37,1-.42,1.64-.78.18,0-.39.3.08.13.63-.44,2-.54,3-1.06-.3.14-.89.26-.51.1a6.21,6.21,0,0,1,.82-.21c.47-.46,1.72-.63,2.43-1a1.13,1.13,0,0,1,.55,0,9.72,9.72,0,0,1,2-.73c.13.09-.72.23-.75.33a22.78,22.78,0,0,0,2.8-1c.37-.1.22.06.53,0-.33-.1.89-.41,1.71-.59,0,.13.06.18-.09.24a3.09,3.09,0,0,0-1,.24c.48,0-.43.24-.41.32-.34,0-.37,0-.2-.07-1.17.35-2.68.64-3.82,1.06,0,0,.25-.16,0-.11.3.06-.53.18-.43.25.49-.07-.29.26-.54.36.14-.1.12-.13-.21-.05-.26.32-1.2.35-1.52.61-.39.08.25-.22-.37,0l.08.13c-.55.2-2.16.81-2.61,1s.53,0-.22.25c0-.19-1.64.75-1.93.59A30.74,30.74,0,0,0,112,10a2.68,2.68,0,0,0-1,.48c.22-.15.68-.26.34-.08a42.17,42.17,0,0,0-6,3.29c-1.13.9-2.17,1.6-3.45,2.67v-.11c-1,.81-2.32,1.7-3.23,2.47-.09.11-.09.13,0,.12.25-.2.48-.36.58-.33l-.48.46h0c-.42.29-.69.87-1,.88,0-.16,1.2-1.15.54-.81a6.32,6.32,0,0,1-1.53,1.66c.41.16-1.3,1.56-1.63,2.19a6.3,6.3,0,0,0-1.5,1.48,7.13,7.13,0,0,1,2.06-1.65c-.12.13-.32.32-.29.36.68-.6.24-.52.91-1.1-.11-.1-.71.63-.84.57A22.1,22.1,0,0,1,98,20.18c-.41.33-.06.24-.38.52-.13.07-.76.54-.74.64a7.3,7.3,0,0,1-2,2.26c-.14.48-1,1-1.09,1.18.33-.3,0,.19-.07.33-.15-.12-1.19,1.16-.5.63-.42.5-.59.54-.65.52a11.36,11.36,0,0,0-.67,1.26c-.07-.06.08-.3-.24,0s0,.13-.09.32-.14.13-.17.09c-.11.6-1.29,1.46-1.34,1.78.11-.16.23-.3.26-.22a7.66,7.66,0,0,1-1.16,1.36c0,.28-.37.42-.67.9a3.65,3.65,0,0,1-.61,1.39c-.35.58-.71,1.09-.75,1a3.53,3.53,0,0,1-.72,1.42c.1.26.57-.91.78-1a5.65,5.65,0,0,1-.5,1,3.64,3.64,0,0,0-.77,1.27c-.16.15-.27.24-.34.17a.79.79,0,0,0-.09.22,1.51,1.51,0,0,0-.31.31h0v.06c-.17.22-.34.49-.5.72.06,0,.11,0,.13.15a.14.14,0,0,0-.06.08,3.9,3.9,0,0,1-.3,1.12l-.12.1c.25-.3,0-.78-.14-.47-.21,1-1,1.78-1.11,2.7a.51.51,0,0,1-.26.25.8.8,0,0,0,.06-.3,3.61,3.61,0,0,0-.32.31ZM126.85,12.4l-.31.15c.06-.11.26-.22.6-.35a.25.25,0,0,1,.06.13h.06l-.18.06C126.62,12.62,127.35,12.24,126.85,12.4Zm-.62.3-.21.09h-.19l.21-.11a1.93,1.93,0,0,0-.61.14c-.16,0-.28,0-.2-.07.54-.11.41-.33.48-.52a1,1,0,0,1,.72,0C125.87,12.46,125.85,12.62,126.23,12.7ZM122,14.27s.07-.1.06-.15a.67.67,0,0,0,.23.1l-.32.15v-.09h0Zm0-.33c0-.26-.5-.15-.8-.1h.15c.18-.09.49-.25.84-.4a.47.47,0,0,1,0,.21,1.57,1.57,0,0,1,1-.21l.4-.37.78-.31c0-.05-.28.06-.67.2l.14-.13a2.87,2.87,0,0,0,.37-.09,4.07,4.07,0,0,1,.54-.24l.08.16c-.71.23-1.06.46-.56.67-.89.27-1.56.32-2.35.61Zm.61-8.23s.53-.29.62-.22.1-.07.12-.11c.48-.1.2,0,.22.09-.57.17-.57.07-1,.24Zm.29,7.48a.74.74,0,0,1-.25,0l.3-.12s0,0-.13.12Zm1.24.35a3.7,3.7,0,0,0,.66-.33h0a1.52,1.52,0,0,1-.7.36s0,0,0,0Zm.77,7.41a9,9,0,0,1-1.82.89,13.68,13.68,0,0,1,1.74-.84Zm-.7-15.66c.09,0,.17-.11,0-.06L125,5a1.44,1.44,0,0,1-.87.31ZM119.6,7.11l-.62.22c0-.12.35-.27.7-.42C119.58,7,119.56,7.05,119.6,7.11Zm-.7,7.94c-.47.13-.29.32-.67.47C117.7,15.27,118.79,14.79,118.9,15.05Zm-1.2-7.37c-.2-.08.7-.32,1-.47C118.57,7.4,118.35,7.4,117.7,7.68Zm-.17,8.85-.15.07h0Zm-1.29,1-.23.06c-.05-.36.65-.49,1.11-.58Zm.4,8.36c-.12.16-.54.47-.56.31.2-.1.58-.46.56-.28Zm-6.29-5.34a2.81,2.81,0,0,1,.64-.69.2.2,0,0,1,0-.08c.32-.21.51-.11.9-.43a.15.15,0,0,0-.06-.11l.23-.14c-.09.13-.1.2.25,0a.5.5,0,0,1,0,.12,1.38,1.38,0,0,1,.41-.37V19l-.51.34a11.28,11.28,0,0,1-1,.8.3.3,0,0,0-.09-.1Zm.21.78-.17.13ZM114.38,9c0-.14.83-.44,1.31-.66.38,0-.12.26.18.3-1.84.77-3,1.45-4.75,2.16,1.07-.65,2.6-1.34,4.35-2.2-.21-.06-.7.36-1.09.43Zm-.29,8a.64.64,0,0,1,.21-.23l.58-.29s.05,0,0,.06a8.26,8.26,0,0,1-.79.49Zm.63-.2Zm-1.8.73.24-.13h0a.48.48,0,0,1-.24.16Zm.28.46a2,2,0,0,1-.19.15h0Zm.19.83-.42.25a1.3,1.3,0,0,1,.42-.22Zm-1.92.45a.1.1,0,0,1-.06,0,6,6,0,0,1,.53-.39.86.86,0,0,1,.31-.1,7.71,7.71,0,0,1-.78.57Zm.44-.15-.07.07h0Zm-.21-.47.38-.25c0,.1,0,.2-.32.31l-.06,0Zm2.13,9.21a9.56,9.56,0,0,1-1.57,1.2,10.86,10.86,0,0,1,1.57-1.17Zm-.38-8.81c-.25.09-.5.18-.59.2a.15.15,0,0,1,0-.07,8.48,8.48,0,0,1,.74-.42h.28a2,2,0,0,1-.43.32Zm.5-.91-.48.33h0a.4.4,0,0,1,.11-.26,4.26,4.26,0,0,1,.68-.43h.11q-.18.2-.37.39Zm.42-.52c.13-.09.26-.16.4-.24a.1.1,0,0,1,0,.08c-.18.21-.3.21-.4.19Zm.86.44-.59.33-.08-.09a1.65,1.65,0,0,1,.67-.21Zm-.84-.85c.35-.24.24-.24.06-.21l.27-.17s0,.08.08.11c.49-.2.45-.41.79-.61h.15l-.39.3.44-.25a.29.29,0,0,0,.07.27c-.49.22-1.13.75-1.47.59Zm1.48.42v0h-.06l.06,0Zm-7,14.82c.32-.3,0,.26.22,0-.2.22-.59.55-.9.84-.09,0,.72-.65.73-.81Zm-1.3,1c.2-.19.5-.4.59-.62.3-.17-.41.84-.54.63ZM108.36,22c-.21-.2.68-.92.74-.39-.24.27-.37.06-.69.4Zm0-9.52a3.09,3.09,0,0,1-.58.29c.21-.16.39-.4-.22,0,.44-.34,1.35-.82,2.09-1.25-.17.33-1.44.78-1.29,1Zm-2.2,11.61c-.58.56-.88,1.1-1.5,1.69,0-.5-.4-.29-.91.22l-.14-.14a4,4,0,0,1,.46-.35c.06-.08.12-.17.2-.26l.22-.09c-.29.27-.53.52-.46.49s.43-.38.63-.55.34-.13.51-.19c.15-.25.11-.48.6-.77a.73.73,0,0,1-.22-.08,8.63,8.63,0,0,1,.73-.55l.14-.2c-.12.23-.54.65-.26.79Zm-1.83,2.15v-.07a3.35,3.35,0,0,0,.57-.42h.1c-.32.33-.54.49-.67.5Zm.35,12.36a1.17,1.17,0,0,1-.44.61c0-.08.37-.78.44-.6Zm.57-3.1c-.22.31-.32.33-.5.56,0-.1.41-.7.5-.55Zm.26.77a4.35,4.35,0,0,1-.75,1c.06-.31.53-.72.75-1Zm.18.62c.2-.13,0,.13.21,0a9.58,9.58,0,0,1-1.12,1.49,13.84,13.84,0,0,0,.91-1.48ZM103.57,27l-.11.15-.18.14c.06-.35-.11-.39-.56,0a.92.92,0,0,1,.32-.59c.21,0,.39.2.7-.22.08,0,.07,0,0,.17a1.39,1.39,0,0,0-.39.49Zm-.84.89-.14.13h0v-.07h0l-.1-.1c.27-.25.47-.4.6-.39l-.28.21c-.42.4.24-.08-.08.23Zm3.4-14a9.13,9.13,0,0,0-.9.44,5.44,5.44,0,0,1,1.22-.79c.12,0-.64.34-.32.31Zm-1.55.68c0-.23,1.1-.72,1.3-.95-.2.28-.76.48-1.3.91Zm.61,9.87a.68.68,0,0,1-.12.22c-.15.11-.17.08-.14,0Zm1.39-.07c-.08.07-.16.12-.23.19a.54.54,0,0,0,0-.22.59.59,0,0,0,.23,0Zm-.5-10.78a4.78,4.78,0,0,1,1.8-1.11,11.69,11.69,0,0,0-1.8,1.07Zm1.51-.7a1.44,1.44,0,0,1-.62.51,1.14,1.14,0,0,1,.62-.55ZM101,29.74h0v.08h0l.07-.06h-.19a.23.23,0,0,1,0-.09v.08c-.23-.12-.49,0-.76.17s.19.28.42.25l-.33.3a1.06,1.06,0,0,1-.63-.17,1.82,1.82,0,0,0,.15-.27c.17-.11.38-.37.48-.35s.21-.28.33-.46l.15-.07c.07.1-.15.28-.05.37s.33-.1.46,0h0a.87.87,0,0,1-.06.33Zm-.12.2a1,1,0,0,1-.51.38l.19-.22c.12,0,.25-.21.34-.16Zm-.7.92L100,31v-.1Zm-.71.29v-.3a.31.31,0,0,1,.43-.06c0,.06,0,.12.08.14-.17.22-.31.23-.47.37h0l.12-.14c.09-.16,0-.08-.14,0ZM98,20.05a15.7,15.7,0,0,1,1.56-1.41A9.06,9.06,0,0,1,98.06,20Zm1.13,32.7c0-.39.16-.52.21-1,.18,0,0,1-.19,1Zm-.54,11c0,.09,0,.13.07.13-.12.39.12.61,0,.85,0-.15,0-.29-.08-.25.11-.55-.06-.48,0-.78Zm-.4-31.46.21-.09c-.29.53-.09.57-.28.9L98,32.88a2.16,2.16,0,0,1,.22-.64Zm-.25,0,.07-.12a.14.14,0,0,0,0,.07Zm.42-1.83.25-.29a.43.43,0,0,0,0,0l-.24.34a.15.15,0,0,0,0-.14Zm-.14,2.66v.06h0ZM98.2,60a.57.57,0,0,0-.06-.27c0-.34.09-.3.09-.6.15-.09,0,.41.14.4s0-.14,0,0S98.31,60,98.2,60Zm.16.65a2.26,2.26,0,0,1-.07.61.29.29,0,0,1-.16-.28c.1-.07.1-.46.23-.38ZM98.25,59c0-.33.06-.73.17-.72C98.45,58.45,98.38,59,98.25,59Zm.15-26.29c.25-.32.4-.14.33,0-.36.4-.21,0-.33,0Zm.13-.51h0s0,0,0,0Zm.16.2Zm0,25.56v-.62s.16.47,0,.58Zm-.14-26a.42.42,0,0,1,0-.1,1.21,1.21,0,0,1,.14-.2.19.19,0,0,0-.13.07.49.49,0,0,0,0-.21l.28-.35H99a1,1,0,0,1-.43.83Zm-.08-12.42a1.46,1.46,0,0,1,.67-.69,2.73,2.73,0,0,1-.69.69Zm1.42,30.32c.06,0,.1-.13.15-.08,0,.28-.25,1-.4,1,.15-.4.1-.54.23-.92Zm.58-32a3.38,3.38,0,0,1,1-.86c.08,0-.45.37-.61.53,0,.08.46-.34.66-.47a3.81,3.81,0,0,1-1.07.83Zm.81,10.29.27-.2a.52.52,0,0,0,.19.15l-.23.23h0a.41.41,0,0,1-.12.09,1.41,1.41,0,0,0-.13-.24s0,0,0,0Zm.42.5s.11,0,.11.07a1.94,1.94,0,0,1-.43.38,3.81,3.81,0,0,0,.3-.42Zm.1-.13a1,1,0,0,1,.49-.36,4.33,4.33,0,0,1-.39.6.33.33,0,0,0-.12-.21Zm-5-7.46c0-.08.26-.35.23-.43.2-.16.2,0,.54-.39.08.12-.43.53-.76.85Zm.49,60.18c-.11-.39,0-.62.34-.67.1.24,0,.3-.06.16-.29.06.11.58-.27.54Zm-3.42-42c-.08.18.06,0,.14-.08a.25.25,0,0,1-.06.16.11.11,0,0,1,0-.06c-.64.66-.71,1.47-1.27,1.87.25.29.4-.24.61-.34a1.17,1.17,0,0,0-.39.76c-.21.34-.41.69-.61,1a.16.16,0,0,1-.23,0h0c.14-.5.37-.36.55-.62-.42-.26-.5.4-.62.76a6.36,6.36,0,0,0-.28.59.53.53,0,0,1,.12.18c-.21.43-.41.87-.61,1.32a.18.18,0,0,0-.16,0,1.74,1.74,0,0,1,.2-.42,4.5,4.5,0,0,1,.24-1,.79.79,0,0,0,.23-.63,31.33,31.33,0,0,1,1.5-2.93c.13-.08.22-.17.16-.28l.44-.79c.09-.15.17-.3.25-.46a2.23,2.23,0,0,0,.19.24l.25-.41c-.17,0-.14-.19-.19-.29l.18-.34a.25.25,0,0,1,.17,0c-.08.18,0,.11.14.06h0s.08,0,0,.17a6.79,6.79,0,0,1-.93,1.6Zm.62,34.83c-.07-.36-.13-.72-.2-1.09a1.21,1.21,0,0,1,.21,1.1ZM90.62,45.66a8.68,8.68,0,0,1,.3-1,1.08,1.08,0,0,0,.07-.18,2.72,2.72,0,0,1,.16-.35c.2-.06-.26.7-.21.82h0c0,.1,0,.14.13.17-.06.15-.12.29-.19.43a.47.47,0,0,0,0-.17A.45.45,0,0,1,90.62,45.66Zm0-2.45c0-.16-.44-.07-.16-.43.15,0,.34.23.48.19-.1.21-.19.43-.28.65a.32.32,0,0,1-.17-.11c.13.1.2-.18.17-.3Zm0,3c-.06.18-.14.36-.2.54h0a2.85,2.85,0,0,1,.23-.53Zm4-10.28a.34.34,0,0,0-.38,0c.28-.35.29-.46.05-.4.09-.18.18-.36.29-.54h0c.13-.17.23-.33.33-.49,0,.21-.38.74,0,.41a12.19,12.19,0,0,1,1.36-2h0a.65.65,0,0,0,.36.07l-.41.51c-.27.35.32-.23,0,.18l-.1.1a.59.59,0,0,1-.1-.21.91.91,0,0,0-.3.71c-.34.46-.72,1-1.1,1.67Zm-.4-.44h0l.14-.12-.14.13Zm2.56-1a.29.29,0,0,1-.07.23.44.44,0,0,1-.33-.11l.19-.27Zm-.6.74A.24.24,0,0,1,96,35c.08-.06.2-.23.25-.16v0c.09.08.16.21-.07.41Zm-.28.59a.73.73,0,0,0-.32-.19,3.37,3.37,0,0,1,.21-.31c.09.11.29.22.11.47Zm-.75,1.33-.21.32h0a1.37,1.37,0,0,1,.21-.35Zm0,0L95.3,37a.37.37,0,0,0,0,.15l.16-.24a.87.87,0,0,0,.33-.22,3.62,3.62,0,0,0-.27.57c-.31.33-.21.09-.4.57-.29.17-.12-.29.06-.73ZM96.53,79c.28.41-.53.48-.59.26-.22-.54.52-.41.62-.31Zm-.86-.27c-.12-.28,0-.39,0-.59.19.1.39.15.48.51ZM96,36.37a.13.13,0,0,0,0-.09,6.09,6.09,0,0,0,.8-1.34c-.33.48-.62.87-.91,1.23a.16.16,0,0,1,0-.22l0,0a5.65,5.65,0,0,0,1-1,.59.59,0,0,1,.34-.06A15.13,15.13,0,0,0,96,36.37Zm1.06-3,.17-.23.1.06-.25.34a.23.23,0,0,0,0-.2Zm.11,14.3a4.3,4.3,0,0,1-.46,1.55,5.18,5.18,0,0,1,.47-1.58Zm-.08-14,.15-.19h.07a1.92,1.92,0,0,0,0,.24c-.14,0-.19,0-.21-.09Zm.46.63ZM97,32.44l-.34-.06c.24-.3.49-.58.73-.85a.56.56,0,0,0,.27,0c-.21.29-.43.59-.65.87ZM85.36,57.7v-.06c0-.06.13-.23.24-.23,0-.21-.1-.28-.18-.29s0-.22,0-.32a.59.59,0,0,0,.23,0C85.62,57.26,85.85,57.77,85.36,57.7ZM85,61.33l.06-.7c.32.44.63,1.7.06,1.73A1.31,1.31,0,0,0,85,61.33Zm.45-2.61c-.1.21-.17.49-.27.69a5.82,5.82,0,0,1,.09-.73.27.27,0,0,1,.16,0Zm-.76-19.91a.38.38,0,0,0,.06-.13.57.57,0,0,1,0,.13Zm0,.13a1.62,1.62,0,0,1-.23.5,1.14,1.14,0,0,1,.17-.47ZM83.12,78.52c-.18-.4-.5-1.07,0-1.07.23.61-.06.87.28,1.21,0,.28-.11,0-.15-.16a.42.42,0,0,0-.14.38C82.88,78.8,82.93,78.49,83.12,78.52Zm3.23,12.74a5.43,5.43,0,0,1-.37-.94c.25.62.34.42.6,1C86.53,91.42,86.41,91.21,86.35,91.26Zm.86,1.66c.25.1.26.06.12-.39-.11.06-.63-.83-.51-.89s.31.57.39.57c-1-1.85-1.76-3.5-2.64-5.34a21.52,21.52,0,0,0-.88-2.46A8.39,8.39,0,0,1,83,82.08a2.91,2.91,0,0,1,.6,1.24c-.12,0-.16.09,0,.51,0-.15,0-.23.15-.2a8.57,8.57,0,0,0,.66,1.89c-.08.29-.32-.8-.42-.75a14.46,14.46,0,0,0,1,2.17c.13.5-.31-.39-.16,0s.38.89.62,1c.71,1.64.75,1.75,1.44,3.24.07,0,.12-.11.24.1-.06.09.43.82.26.79a4.56,4.56,0,0,0-.46-.72C87.85,93.16,88.16,94.06,87.21,92.92Zm-2.59-8c.27.65.54.93.45,1.27A7.69,7.69,0,0,1,84.62,85Zm1.71,3.15a2.3,2.3,0,0,1,.37.93c-.15-.42-.56-.83-.37-.88Zm1.61,5.62c.17,0,.12-.17.18-.25a21,21,0,0,1,1.21,2.23,17.88,17.88,0,0,1-1.39-1.93Zm1.43.52c-.22-.21-.32-.57-.22-.62.14.33.35.68.22.67Zm.53,2.68c0-.13-.21-.52-.17-.65.53.7.63,1.3,1.15,1.88-.19.05-.75-1-1-1.18Zm1.42,1.58c-.08-.07-.45-.35-.42-.54.34.48-.09-.43.25.06-.07.11.29.54.17.53Zm.06.16c.92,1.08,1.46,2.09,2.12,2.69.26.68-1.5-1.54-2.12-2.64Zm2.69-6.49c-.4.32-.32.93-.94,1.13l-.66-1.19c.2-.74-.6-2.14-.56-3-.13,0-.27.13-.38,0-.17-.5-.43-.47-.59-1a1.17,1.17,0,0,1-.77-.45c-.11-.13,0-.25,0-.35s-.36.12-.59,0a1.26,1.26,0,0,0-.13-.32c-.21-.16-.39,0-.54-.19.06.2.12.39-.08.39-.16-.16-.23-.18-.3-.19l-.46-1a34.74,34.74,0,0,1-1.58-4.2c-.09-.29.05-.22-.1-.6a16.43,16.43,0,0,1-1.18-4.68,18.28,18.28,0,0,1-.51-2.65c-.12,0-.21-.33-.27-.88.12.24,0,0,.17,0a5.23,5.23,0,0,0,.25,1c0-.2-.13-.78.06-.62.16,1,.4,1.3.6,2.17a2.82,2.82,0,0,0-.06-.75c-.36-.58-.58-2.14-.94-2.42,0-.34.14-.57.25-.34a17.7,17.7,0,0,0-.18-2.5c0-.36.06-.64.24-.57-.09-.23-.21-.38-.3-.58s0-.21,0-.31h0c.12.05.16.54.27.71a2.5,2.5,0,0,1,0-.43,1.18,1.18,0,0,0,.1.3c0,.1.08.26.12.26a.36.36,0,0,1,0-.11h0c-.09-.4.08-1.21-.17-1.34h0v-.22c0-.07.2,0,.12-.33a4.62,4.62,0,0,0-.13-1.18c.14-.07.23-.2.23-.49a1.74,1.74,0,0,1-.28-.32v-.37h0a1.06,1.06,0,0,1,0-.14A8.34,8.34,0,0,1,84.86,63c0,.23,0,.5.19.56-.24,0-.26,1.09.09,1.18a1.9,1.9,0,0,1,.25-1.32c-.29,0-.35-.26-.3-.69h.45a4.42,4.42,0,0,1,.2-1.47,1.85,1.85,0,0,1-.55-1.41c.38-1,.36-1.82.75-3.06-.3-.14-.21-.69-.27-1.07h0a.43.43,0,0,0,0-.11.33.33,0,0,0,.21.17,2.3,2.3,0,0,1,.12-1.3,3.73,3.73,0,0,1,.06-.84c.06-.19.28-.32.33-.43a.5.5,0,0,1,0-.35c.13-.36.23-1,.37-1.45s.71-1,.26-1.3a.35.35,0,0,0-.23.18,39.35,39.35,0,0,1,2.45-6.89,44.41,44.41,0,0,1,2.34-5.16,10,10,0,0,1,1.57-3,22.42,22.42,0,0,1,1.63-2.61l.16-.22-.16.22c-.21.32.26-.24.36-.28-.72,1-1.25,1.68-1.2,2a2.56,2.56,0,0,1-.32.33c.06-.09.16-.24.12-.26-.58.77.36,0-.06.62-.26,0-.51.87-.69.62.22-.4.41-.45.35-.63a25.74,25.74,0,0,0-1.59,2.78c.38-.37.72-1.34,1.12-1.88.13-.11.21,0,.34-.16.5-.59.77-1.25,1.18-1.5a27.12,27.12,0,0,1-1.68,2.39c0-.07.11-.13,0,0a20.65,20.65,0,0,0-1,1.9c-.21.27-.92,1-.61,1.16.22-.52.54-1.15.79-1.23.68-1,.76-1.81,1.33-2.41a2.85,2.85,0,0,0-.5,1.2c.34-.52.09-.47.49-1,0,0-.06.23,0,.3a7.34,7.34,0,0,1,1-1.7l-.06.19h.07c-.24.41-.47.8-.68,1.18h0c-.07.11-.12.21-.18.32h0c-.3.31-.54.55-.44.88l-.07.14s-.16,0-.15.09h0a2,2,0,0,0-.58,1c.11-.16.24-.07.37,0,.19-.25,0-.35.06-.53.17-.46.37-.37.57-.54A13.5,13.5,0,0,1,92.36,39a13.63,13.63,0,0,0,1.43-2.49h0c.15-.19.3-.53.45-.5a4.86,4.86,0,0,1,0,.53c-.17.29-.33.59-.48.87h0l-.31.61c0-.07,0-.17-.12,0a4.17,4.17,0,0,1-.46,1.15h-.12c.05-.12.16-.29.07-.34-.09.71-.5.47-.81,1.23.16.13.3.06.43-.07l-.11.2h0c-.34.35-.56.88-.89,1.19.23.29.34-.24.5-.48h0c0,.07-.06.13-.07.19L92,41h0c-.3.53-.6,1.11-.89,1.73-.37-.09-.45-.35-.52-.61-.27.72-1,1.72-.92,2.28.07-.15.26-.12.2.09-.09.63-.47-.17-.56.47.27.29.47.27.47.9a1.94,1.94,0,0,0-.15.79c-.05.18-.09.36-.13.53a.22.22,0,0,0-.2-.18,4.85,4.85,0,0,1-.09.55c-.14.52-.28,1.09-.43,1.68h0c-.36.49-.23.69-.31,1.33a.29.29,0,0,1,0,.09c-.34,0-.07-.49-.42-.47l-.1.31s-.16.09,0,.15c.28-.37.57.25.4.64-.35,0-.24-.37-.59-.35-.11.71.22.35.46.81a.74.74,0,0,1,.08-.13c-.16.66-.32,1.32-.48,2a1.1,1.1,0,0,0-.38-.53c-.18.55.2.59.29.9s-.09.36-.14.53-.29.32-.26,0c0-.44.28-.26.36-.58-.59-.31-.66,1.42-.16,1.3a.24.24,0,0,1,0-.08,1,1,0,0,1,0,.26c-.06.33-.11.68-.16,1a.3.3,0,0,0,0-.08c-.25.37.08.54-.37.26.24.76-.71,1.87.1,2.15v.42c-.39.29-.42,1.57-.42,2.31a2.27,2.27,0,0,0,.22,1.32V65.1a73.42,73.42,0,0,0,.94,9.08V74A31.73,31.73,0,0,0,89.4,81.3v.75c.17,0,0-.23.18-.36a14,14,0,0,0,1.28,3.69h-.11A12.52,12.52,0,0,1,92,88.05c-.07-.16,0-.17.05-.18.34.67.64,1.22.56,1.33A2.49,2.49,0,0,1,93,90.29c.3.48.17-.1.36.15.32.68.69,1.37,1.09,2.08-.08,0-.2-.07-.38-.33Zm.05-56.35a.2.2,0,0,1-.06.13h0l.06-.08Zm-.15.08h-.16a4.47,4.47,0,0,1,.29-.35.49.49,0,0,0,0,.12,1.2,1.2,0,0,0-.1.28Zm-.26.45a2.58,2.58,0,0,1-.32.45,1.76,1.76,0,0,1-.22.73.41.41,0,0,0-.36,0c.1-.13.18-.25.26-.37a1,1,0,0,0,.28-.48l.25-.44a.48.48,0,0,1,.11.16ZM90.09,47.25l.15-.39A.74.74,0,0,1,90.09,47.25Zm0,.32c-.09.3-.18.59-.28.89a4.91,4.91,0,0,0-.45,1.45c-.05.19-.11.38-.17.57a9.51,9.51,0,0,1,.8-3,.15.15,0,0,1,.11.09Zm-1.58,5.72c-.12.49-.23.94-.29,1.29-.14-1,.55-2.77.85-4.13a10.88,10.88,0,0,1-.37,2,1.22,1.22,0,0,0-.18.84Zm-1.16,6c.12,0,0,.66,0,.84s0-.6,0-.83ZM87,57.79a3.23,3.23,0,0,1-.09.92,1.69,1.69,0,0,1,.1-.91Zm-.19,2v.57a.73.73,0,0,1,0-.53Zm-.09,1.42v.88a1.07,1.07,0,0,1,0-.57.59.59,0,0,1,0-.27Zm7.8,31.22a35.86,35.86,0,0,1-1.7-3.21c-.68-1.44-1.29-2.89-1.88-4.09,0,0,.11,0,.06-.17-.1.16-.27-.23-.41-.47.06-.33-.48-1.26-.51-2a7.13,7.13,0,0,1-.68-2.19c-.1-.13-.18-.08-.28-.36.12-.13-.22-.68-.16-1a6.63,6.63,0,0,1-.58-1.78c.21-.17-.12-1-.26-1.7-.13-.3-.06.19-.15-.12a50.19,50.19,0,0,1-.93-11v.28c0-.44-.11-.28-.08-.71.12,0,.09-.24.17,0a12.28,12.28,0,0,1,.12-2.26c-.12-.17-.12.21-.18.26a5.42,5.42,0,0,1,0-.7c.07,0,0,.39.15.3.09-.66-.12-.49,0-1.14.19.1.11-.7.27-1.11-.13-.29-.12-.35-.22-.3a1.6,1.6,0,0,0,.06-.84h.12c0-.27,0-1.4.21-1.53a13.1,13.1,0,0,1-.26,2c.17,0,.23-.71.32-1.45a7.16,7.16,0,0,1,.31-1.59.41.41,0,0,1,0,.09c-.27,1.79-.49,3.36-.63,5h-.08a9.14,9.14,0,0,1-.12,1.44h.09v.35a.67.67,0,0,0-.11.24h.1V64c.07.06.11-.21.12,0a3.92,3.92,0,0,1,0,.85c-.1-.17.11-.59-.08-.56a20.66,20.66,0,0,0,.08,2.39c0-.28.08-.91.19-.43a24.39,24.39,0,0,0,.12,3.49h0V70c0,.56-.16,1.14.17,1.39.13.9.27,1.76.4,2.52a57,57,0,0,0,2.51,9.78h-.07A35.71,35.71,0,0,0,92.25,87c.13.37.27.74.18.86.13.22.33.79.42.76-.3-.56-.38-.89-.26-1l1.71,3.5c.17.24.35.53.54.83a1.66,1.66,0,0,1-.27.51Zm0-17.86a.72.72,0,0,0-.08-.4c.18,0,.64-.31.66.31-.3,0-.44,0-.54.13Zm.62,2.54L95,76.3h0c.29-.26.28.48.38.67a1.3,1.3,0,0,1,.35,1c-.3-.27-.27-.62-.51-.82Zm.32,15.43Zm32.26,31.36-1.1.31L122,122.88s4.52,1.69,3.49,1.65c-.51,0-1.62-.16-2.61-.3-.09-.14-.55-.33-.16-.31a12,12,0,0,1-3.07-1.47c-.19-.09-.17,0-.22,0s-.06-.12-.26-.21a7.65,7.65,0,0,1,2.32,1.09c.43.13,1.06.4,1.47.51,0-.2.08-.28-.94-.74,0,.08.5.25.4.3.07.14-.34-.06-.38,0-.32-.16-1.44-.7-.86-.55-.4-.26-.35-.07-.7-.16a1.25,1.25,0,0,0-.74-.39,3.59,3.59,0,0,1-.39-.36,43.64,43.64,0,0,1-4.2-2.23s.12.11.1.14c-.55-.4-.91-.61-2-1.27,0-.06,0-.11.22,0a39.76,39.76,0,0,1-3.45-2.45c0,.28-1-.72-1.52-.85-.14-.21-.73-.63-.67-.75-.61-.44.19.26-.28,0-.53-.42-1-1-1.49-1.37h-.22c-.33-.27-.43-.5-.82-.83a.71.71,0,0,0,.07.16c-.18-.17-.51-.52-.72-.71-.36-.31-.86-.53-1.27-.91s-.5-.69-.84-1a14,14,0,0,1-1.74-1.62c-.35-.36-.49-.35-.8-.66-1.07-1.24-2.11-2.36-3.23-3.86,0-.18-.34-1,.2-.31-.64-.76-1.81-2.4-.91-1.57.24.23.5.67.38.54a27.75,27.75,0,0,1,2.54,3.08,58.66,58.66,0,0,0,8,7.36h0a22.91,22.91,0,0,0,3,2.06l.07.07c2.42,1.62,4.81,3.29,7.63,4.83.21,0,.09,0,.07-.1.32.17.45.28.37.33.6.18,2.44,1.27,2.37,1a2.92,2.92,0,0,0,1,.6c-.11-.18,0-.08.12-.2-.68-.27-.69-.21-.86-.49.23.11.49.19.74.29a7.08,7.08,0,0,0,1.88.82c.12.1.26.22.14.19a1.38,1.38,0,0,0,.59.08h0c.93.39,1.75.92,2.57,1.21l1.38.48h0a8.72,8.72,0,0,1,.93.32,3.16,3.16,0,0,0-.9-.38ZM100.09,90.2c-.09-.06-.72-1.06-.54-1a7.47,7.47,0,0,0,.79,1.21C100.32,90.5,99.93,89.83,100.09,90.2Zm.31-12.75a.37.37,0,0,0,0-.11c.08.38.18.22.27.45C100.58,77.91,100.49,77.62,100.4,77.45Zm.88,2.23a4.94,4.94,0,0,0,.51,1C101.67,81,101.28,79.91,101.28,79.68ZM102,93.33c.24.45-.74-.8-.51-.76A4.58,4.58,0,0,0,102,93.33Zm1.22-10.59a5.33,5.33,0,0,1-.72-1.46h.12c.16.54.49,1,.61,1.46ZM103,81.52c-.11-.37-.2-.19-.31-.55.07,0,.11-.07.11-.16.16.31.31.66.21.71Zm.48,1.89c.08-.06.16,0,.27.17-.09.25.53,1.31.92,1.76-.11.13-.14,0-.17.2-.47-1.14-1-1.8-1.37-2.79.17.29.3.18.45.5-.08,0-.2-.17-.09.16Zm.8-3.48a8.6,8.6,0,0,0,.66,1.39c-.09.07-.12.2-.09.4a11.54,11.54,0,0,1-.86-2.2c.12.36.21.33.3.41Zm-.09-.94.17.44c-.12.12-.35-.49-.16-.43Zm1,7.46c-.08,0,0,.15-.09.16-.21-.4-.47-.85-.33-.92.24.31.24.55.46.76ZM151.56,111c-1-.56-1.35,1.28-2.43.21v-.81c.71.61.92-.57,2-.2C150.9,110.86,151.81,110.36,151.56,111Zm3.13,18.19h.06l.22.14a.76.76,0,0,0-.28-.13Zm1.12-2.49a15.94,15.94,0,0,0,0-1.95c1,.48.43,1.15,0,2Zm0-6.86c.31-.32-.33-.62-.51-.62l.15-.55c.06,0,0,.5.15-.42a19.46,19.46,0,0,1,2.86.23c.72,0,1.45-.38,2.27-.41a1.41,1.41,0,0,1,.35.22,4.45,4.45,0,0,1-1.55.26c0,.21-.8.3-1.62.38a5.76,5.76,0,0,0-2.08.92Zm.32-2.65c.71.21.79.14,1.38.33-.1,0-.12,0,0,.15-.43,0-1.25.16-1.43-.06-.27.08,0,.18,0,.3-.5.09-.23-.32-.49-.38-.21.31.26-.38-.28-.4.23-.29.19-.84.58-1,.24,0,.58,0,.61.21s-.58.23-.35.86Zm6.53,4.45-3.29,1h-.48c0-.07.07-.14.11-.22a29.75,29.75,0,0,1,3.68-.77Zm-3.85,2.56c-.56-.35-.78,0-1.08.1a5.2,5.2,0,0,1,.64-1,1.75,1.75,0,0,1,.47.17.26.26,0,0,1,.2,0c-.29.15.24,1-.21.74Zm2.75-.71a1.07,1.07,0,0,1-.86,0c-.24.07.53.19.05.16a9.54,9.54,0,0,1-1-.29c-.45,0-.78-.06-1.14-.09a.11.11,0,0,0-.08-.1l.15-.19a15.86,15.86,0,0,1,2.89.49.11.11,0,0,1,.09,0Zm2.34,0c-.34-.15,1.06,0,.71-.18.22,0,.18.06.23.11a5,5,0,0,1-.92.09Zm15.63-2.88h-.06a.72.72,0,0,1,.29-.21h.16a1,1,0,0,1-.37.23Zm.22-2.2.15-.06c-.72.49-1.28.91-1.93,1.35-.34.13-.73.29-1.2.52,0-.1-.11-.16-.36-.08-.72.41-1.45.68-1.55.47-1.84.83-3.08,1-4.26,1.52a5.19,5.19,0,0,1-1.1.24,1.66,1.66,0,0,0,.42,0,22.93,22.93,0,0,1-3.83.6c-1.81.17-3.64.14-5.1.17a13.09,13.09,0,0,0-2.28-.25l.11-.17,3.55-.32a11.68,11.68,0,0,0,2.49-.5h0l.06-.06a1.26,1.26,0,0,0,.26-.14h0c-.07.36.58,0,.91-.07,0,.4-.66.28-1.16.43.45.41,1.21-.21,2.11-.41-.11-.1-.35,0-.45-.17,1.17-.17,1-.61,1.34-.93h.37a2,2,0,0,1-.24.43h-.37c0,.07.12.09.31.08a1,1,0,0,0-.22.58c.32-.18.54-.37.5-.62a1.94,1.94,0,0,0,.53-.14l-.49.06a4.43,4.43,0,0,1,1.82-.26.4.4,0,0,0,.17-.48,8,8,0,0,0,2.36-.38c.24-.14.63-.3.58-.43.62-.16,0,.29.52.32l-.49.19c.2.09.89-.27.88-.52-.46.07-.55,0,0-.13.05,0,0,.08,0,.13a23,23,0,0,0,4.33-1.18,10.93,10.93,0,0,1-1.93.87c.72-.16,1.83-.4,1.94-.46.09.13,0,.25,0,.38a1.92,1.92,0,0,0,.6-.32c-.06-.17-.29-.11-.34-.28.7-.11,1.75-.63,1.8-1,.37,0,.06.32-.06.54h0a1.7,1.7,0,0,0-.73.5Zm-14.39,3.21.14-.19h.1c0,.13-.1.17-.22.21Zm3.16-3.41c0-.27,0-.57.18-.62s0-.09.18-.17l1-.58Zm10.46,0c.14-.21.7-.49.83-.27-.12.18-.69.45-.81.24Zm1.37,1.14.91-.49.39-.13-.64.36ZM181.7,118h.3c-.24.12-.39.22-.35.28-.24,0-.49,0,.09-.17a.42.42,0,0,1,0-.14Zm.14,2.13c.14-.18-.15-.08-.59.09l.49-.24c.15,0,.72-.3.7-.19-.31.11-.09.18-.58.31Zm.14-1.47.45-.3c.37-.19.64-.36.9-.5.06,0,.16,0,.38-.17h0l.17-.06a11.39,11.39,0,0,1-1.88,1Zm.27-.47c0-.07.11-.17.3-.27h.09l.11-.06Zm.55-.38h.06a.31.31,0,0,1,.13-.06Zm.57-.44c.19-.08.35-.14.35-.09l-.2.12a.17.17,0,0,0-.13-.06Zm.7-.39c-.29.13-.51.21-.71.28.38-.35.51-.9.8-1,.4-.38.43.19.49.48l-.44.43c-.21,0-.35,0-.12-.2Zm.61-.16c0,.07.07.07.15,0s.27.09.55-.11h.14c-.43.19-.86.35-1.17.45a2.13,2.13,0,0,1,.35-.37Zm.74.26-.28.08a6.09,6.09,0,0,1,.69-.43.44.44,0,0,0,.19,0,6.59,6.59,0,0,1-.58.32Zm.71-.46Zm0-.25-.15.08a.22.22,0,0,1,.07-.12l-.19.15c-.07-.07-.07-.17.15-.36s.11.09.18.22Zm.11.39h0l.54-.32h.07a2.86,2.86,0,0,1-.55.29Zm.63-.67a.87.87,0,0,1-.23-.25c.28-.09.38,0,.44.11Zm.27.17Zm4.58-3.2h-.07l.07-.07Zm.39-.06-.1-.11c.19-.16.49-.29.61-.43l.2-.12c-.07.09-.22.22-.2.23.31-.14.39-.39.75-.72h.15a4.26,4.26,0,0,1-1.35,1.12Zm0-.8c0-.12.26-.33.44-.5s.33.17.49.28l-.31.22c-.09-.16-.11-.23-.56,0Zm.23-5.27c-.68.66-1.23,1.36-1.83,1.92-.11-.12-.26-.09-.44,0a10.27,10.27,0,0,1-2.69,1.93c.06.23.56,0,.06.32-.26,0-.62.2-.88.17-.88.74-1.94,1.18-2.27,1.7a3,3,0,0,0-1.47.94c-.1-.5-.81.23-1.17.25.15.14.47-.06.63.08-.57.13-.65.4-1.24.72-.43-.2.57-.37.39-.56s-.64.41-1.3.62c-.07-.09-.16-.17-.37,0,.43.11,0,.09-.38.3-.57.36-1,.6-1.36.49a.43.43,0,0,0,.33.27c-.48.35-.56.05-.85.09-.89.52-1.77.88-1.9,1.2.07.09.37.08.13.26-.27,0-.39-.22-.66-.24-.39.18-.52.66-.88.38.58-.39,1.17-.41,1.24-.75a6.88,6.88,0,0,0-1.12.27c-.67.16-.19.13-.69.39-.5-.14.13-.51.89-.83s1.62-.6,1.65-.47c.42-.41.67-.26,1.2-.46-.33-.27.49-.35.52-.36.28-.17.22-.43.55-.61.11.42.86-.24,1.09,0,.23-.15.74-.29.45-.46-.46.19-.45.51-.74.29a1.38,1.38,0,0,1,.63-.45c.27-.1,1.51-.06,1.34-.54-.08,0-.21,0,0-.07.32.13.54-.83,1-.5,0,.18-.5.34-.42.5.66-.37,1-.9,1.52-.84.1-.06.06-.35.1-.4s.86-.51.9-.6-.14-.14-.12-.16c.24-.18.64-.19.83-.45-.05-.1-.19-.2-.06-.31.41,0,.19.25.18.47.58-.3.38.21,1.07-.16.24-.19,0-.32.37-.53.19.07.45-.12.63-.22a11.14,11.14,0,0,0,2.42-2,.67.67,0,0,0,.67-.2,35.1,35.1,0,0,0,3.19-2.74c.59.39-.68.93-1.08,1.32Zm-17.48,7.25c.31-.16.47-.42.82-.38.32.24-.74.6-.76.35Zm2.27-.87c.05.31.52-.14.52.28-.36.38-.65-.13-.46-.31Zm.61.45c.85-.15,0,.9-.54.6.37-.22.16-.45.6-.63Zm16.32-8.84c.24.15,0,.45.22.61.1-.07.22-.22.3-.17-.58.61-1.11.23-.46-.47Zm1.43-.83c-.32.32-.49,1-.92.86.22-.3.29-.71.51-1s.45-.25.66-.46,0-.14,0-.17.17,0,.18-.07c.55-.57.87-.86,1.21-.82a14.53,14.53,0,0,1-1.58,1.63Zm2,4.7a4.49,4.49,0,0,0,.48-.51h0a2.17,2.17,0,0,1,.44-.35c0-.15-.3.18-.36.13s-.11.11-.16.16h0c0-.16.49-.45.57-.62s.23,0,.37-.12.13,0,.12.1a11.77,11.77,0,0,1-1.42,1.18Zm2-2-.3.26-.05.08a4.21,4.21,0,0,1,.41-.34ZM198.87,95a.65.65,0,0,1-.26.06,4,4,0,0,1,.52-.67,4,4,0,0,1,.52-1A4.13,4.13,0,0,1,198.87,95Zm1.36-2.23a.77.77,0,0,0-.22.44l-.06.09c-.08.07-.18,0-.27,0,.26-.38.55-.74.77-1.06ZM201.87,78a4.12,4.12,0,0,0,.15-.82C202.2,77.13,201.83,78.51,201.87,78Zm.18-4.58a11.46,11.46,0,0,1-.19,2.61c.08,0,.07.11.11.15-.12.48-.21,1.28-.29,1.65.1.07.14-.42.23-.43a23.19,23.19,0,0,1-.88,4.34c.07.41.21-.73.37-.76-.21,1.16-1,2.46-1.06,3.44-.08.26-.14.08-.23.29a8.83,8.83,0,0,1-1,2.7c.36.4-.94,2.34-1.2,3.45a16,16,0,0,0-1.29,2.47,2.89,2.89,0,0,1-.34.35c-.26.39,0,0,0,.17-.17.3-.26.27-.44.56,0,0,.09-.2.16-.32-.49.62-1,1.59-1.55,2.32a6.56,6.56,0,0,0,1.22-1.81c.08-.1.11,0,.2-.16a1.82,1.82,0,0,1-.61,1c-.2.37-.3.67-.48,1s-.3.07-.57.48c.11.2-.22.66-.59,1.14a4.5,4.5,0,0,0-.8,1.2c-.53.56-1.44,1.7-2.14,2.55.32-.21.25,0,0,.3.57-.55.28-.54,1-1.09a1.26,1.26,0,0,1-.39.65c.38-.53,0-.11-.39.31a.71.71,0,0,1,.39-.14,33.24,33.24,0,0,1,2.71-2.9c-.29.39-.7.94-.91,1.19-.07,0,0-.17.16-.37,0-.06-.29.32-.42.45.33-.23-.1.27,0,.34l.48-.58c.13.17-.78,1-.94,1.34.13,0,.21-.35.6-.64,0,.26-.48.65-.72,1,.36-.1.94-1,1.39-1.45.29-.32.3-.15.58-.66a6.14,6.14,0,0,0,1.07-1.08c-.06,0-.17.14-.24.13.54-.73.81-.81,1.09-.91,0,.18-.29.32-.42.63.61-.75.33-.23.83-.64a9.8,9.8,0,0,1,1-1.38c-.35.53-.77,1.13-1.23,1.74-.66.9-1.41,1.78-2.14,2.59,0-.07.11-.13.14-.19-.26.14-.53.64-1.15,1.22a2,2,0,0,0,.27-.24.63.63,0,0,1-.11.12c-.3.31-.6.45-.94.76a12.86,12.86,0,0,1-1.92,1.82.51.51,0,0,0,.09-.13c.19-.18.41-.41.57-.55-.15.11-.3.22-.44.34,0-.14-.22,0-.61.32,0,0-.48.5-1.1,1.06s-1.62,1.43-2.12,1.8c-.2.15-.14.25-.29.35a7.54,7.54,0,0,0-.88.58c-.29.25-.39.42-.53.52a3.63,3.63,0,0,0-1.2.63,1.37,1.37,0,0,0-.25.41c-.2.12-.55.08-.79.19-.07,0-.16.24-.31.33-.33.2-.76.27-1.12.49a17.77,17.77,0,0,1-2.17,1.3c-.16.07-.27-.14-.5.06.05.16.21.07.29.17-.23.14-.34.06-.59.21a.18.18,0,0,1,0-.24c-.2-.19-.42.23-.16.31a2.07,2.07,0,0,0-.85.35,4.79,4.79,0,0,0-1,.3,8.42,8.42,0,0,1-.76.47c-.26.12-.56.23-.85.35a.85.85,0,0,1,.3-.25l-.66.39-.19.07a2.5,2.5,0,0,1,.33-.17c-.54-.1-2,.74-3,.78-.15.09-.12.24-.14.38l-.09.06-.17.17h0c-.23,0,0-.13-.1-.28-.6.18-1.18.32-1.73.43a4.45,4.45,0,0,0-1.54.4c-.36-.25-.94.18-1.66.26h-.39a1.42,1.42,0,0,0-.3.09l-.38.06a.05.05,0,0,1-.05-.06,1.15,1.15,0,0,0-.46.16,3.82,3.82,0,0,0-.86.16.3.3,0,0,1,0,.11c-.28.23-.22.39-.67.62h0a1.85,1.85,0,0,0-.71.09h-.06c-.51.18-1.57.21-1.9.41a.2.2,0,0,0,0,.17c-.22,0,0-.39.45-.32-.39-.46-.52.2-.91.28-.66-.06-.24-.32-.55-.54-.62.09.25.4-.41.53-.13-.24-.82,0-.69-.46a1.65,1.65,0,0,1-.67.09,2,2,0,0,0,0-1.73c.73,0,1.4,0,1.21-.81-.69.16-1-.11-.8-.81-.58-.16-.53.29-1,.2.46-.56-1.42-1.35-1.76-1.79l-.22.09-.14-.2.14-.12-.33-.16c-.07-.1-.13-.21-.19-.31.11-.06.17.13.12-.26a1.26,1.26,0,0,1-.28,0c-.19-.36-.31-.65-.26-.77a3.14,3.14,0,0,0-.44.08v-.11h-1.22c-.17-.5.06-1.4-.6-1.41-.49-.08.11.92-.61.61-.75-1.39-3.37-.53-3.32,1.12-.89-.27-1.5-.84-2.19-1.07a15.42,15.42,0,0,0-3.06-.83c-.05.18.81.15.46.18.35.16-.63.3-.22.44a27.19,27.19,0,0,0,2.77,1c0,.08-.18.11-.37.12s.1-.16-.35-.15c0,.43-1.92-.14-2.86-.32-.73.09-1.67.44-2.05.42a9.53,9.53,0,0,1-1-.24c-1.15-.43-1.29-.92-1.17-.89s-.32-.15-.34-.1a.56.56,0,0,1-.1-.15h.3c0-.07-.17-.11-.33-.15a.21.21,0,0,1,.15-.16,9.73,9.73,0,0,1-1.77-.28c-.14-.17.48,1.37.19,1.23s-.23-1.41-.26-1.38l-.91-.35c.11,0,.2,1.38,0,1.3s-.2-1.41-.24-1.39-.43.69-.65.58c-.32-.27-.33-1.36-1.22-1.7.12-.18.38-.1.32-.34-.58-.4-1.2,0-1.95-.34-.18-.06-.55-.74-.74-.81-.64-.26-1.38.42-1.48,0-.31-.06-.25-.71-.14-.77l-.4-.15a1,1,0,0,1-.38-.48c-.37-.08-.43,0-.3.22l-.15-.06a21.59,21.59,0,0,1-3.75-2.1c.19,0,.24-.13.57.07-.16-.27.15-.18.27-.32a3.89,3.89,0,0,1-.88-.43c0,.07.13.27-.17,0a.74.74,0,0,0,.22.29l-.44-.25a.33.33,0,0,0,.13-.07,2.3,2.3,0,0,1-.39-.16v-.13c0-.06-.32-.14-.38-.1h-.08v.08h0c-.32-.31-.2-.13-.44-.22s0-.25.11-.11A6.79,6.79,0,0,1,121,99.77c.32.39-.85-.57-.3,0-1.31-1-1.85-1.47-2.9-2.18l.06.44c-.38-.29-.74-.57-1.21-.88-.18-.21.16.06,0-.16-.48-.25-1.16-1-1.43-.85-.57-.6-.82-.85-1.13-1.24,0-.08.12,0,.22.13-.1-.32-.41-.31-.54-.36A13.56,13.56,0,0,1,112.42,93c-.06.17-.31-.14-.43-.14s-.2-.27-.16-.32.15.27.34.35a12,12,0,0,1-1.82-2.68c-.23-.26-.12-.07-.2,0-.34-.48-.21-.6-.62-1.14,0,.21.3.62.27.79-.32-.42-.5-.4-.82-.91-.12-.21.21.11-.13-.35.1-.06.29.21.38.08-.17-.15-.5-.44-.45-.18-.12-.21-.21-.31-.26-.26a8.09,8.09,0,0,0-.37-.88c.16,0,.18.33.32.52.06-.24-.42-.94-.62-1.42a3.12,3.12,0,0,0,.24.79,1.79,1.79,0,0,1-.47-.69c0,.06,0,.13-.05.15-.33-.64-.5-.92-.81-1.6l-.27-.27c-.12-.33-.09-.4-.34-.63,0-.11-.06-.2,0-.24s.25.46.35.49a2.73,2.73,0,0,0-.41-.72c.11,0-.23-.49-.26-.8-.76-1.27-1.14-3.34-1.84-4.7a5.64,5.64,0,0,0-.18-.79c-.07-.08-.13-.11-.19-.09-.07-.17-.12-.42-.19-.43s0-.55.1-.26c.06-.07-.23-.54-.2-.2-.13,0-.23-.55-.34-.89.1-.12.16.36.25.44a9,9,0,0,1-.38-1.95c-.15-.35.07.45,0,.47a3.24,3.24,0,0,1-.69-1.32c0,.5.39.9.56,1.45-.2.11.28,1.35.53,2v.23c0,.11-.1-.07-.15-.21,0,.5.69,1.35.47,1.7-.2-.27-.06-.63-.35-.64,0-.19,0-.61-.18-.69.15,1.55,1.27,3.54,1.55,4.6-.29-.56-.58-1.06-.84-1.48-.11,0,.23.49,0,.35s-.3-.86-.52-1c-.09-.34.17.25.2.06-.12-.06-.29-.76-.12-.45a12.21,12.21,0,0,1-1.19-3.27c-.17-.36-.06.26-.14.27a15.07,15.07,0,0,0-.29-1.77c-.09-.25,0,.15-.16-.1s0-.37,0-.36-.31-.7-.35-.44a6.24,6.24,0,0,0-.1-1.31c0,.05,0,.22-.08.25,0-.87-.28-1.7-.29-2.48,0,0,0,.13-.08.12a34.47,34.47,0,0,1-.44-5.44c-.09.09-.14.28-.11.7a7.17,7.17,0,0,1-.1-2.39c0-.16-.12-.31-.12-.48a.25.25,0,0,1,.13-.23,6.5,6.5,0,0,0,0-1.56,10.3,10.3,0,0,1-.1,1.3c-.18-.34-.09-1.27-.3-1.48a9.83,9.83,0,0,1,0,1.45c.11.09.15,0,.15-.34,0,0,0,.24.07.25a5.57,5.57,0,0,0-.07,2.52,7.08,7.08,0,0,1,0,2.73,25.85,25.85,0,0,1,.45,3.24c.08,0,0-.33.12-.37.12.66,0,.5-.09.6a3.12,3.12,0,0,1,.2,1c.25.13.2.93.46,1.28a2.07,2.07,0,0,0,0,.25c-.11.06-.17-.29-.26-.46a15.58,15.58,0,0,0,1.18,3.59v.49c.28.13.25.94.34.68a5.75,5.75,0,0,1,.14,1.2c.2.63,0-.43.2.2.09,0-.13-.41-.16-.58a5,5,0,0,1,.78,1.92,4.78,4.78,0,0,1-.5-.87c-.12,0,.07.46-.12.4.43.91,0,.57.32,1a1.12,1.12,0,0,1-.26-.44,5.83,5.83,0,0,0,.53,1.51c-.27,0-.14-.44-.47-1V81c-.61-1.16-1.07-1.9-1.55-3,.2-.37-.38-.74-.63-1.52.09.37.28,1,0,.87a2.9,2.9,0,0,0-.26-1.1h0a.37.37,0,0,1,0-.22,2.4,2.4,0,0,1-.12-.38c.11.06.1.2.12.38a1.17,1.17,0,0,0,.06.2c0-.07,0-.13.11-.13-.19-.71-.27-.59-.44-.68a12.19,12.19,0,0,0-.47-2.18c0-.37.12.1.17,0-.13-.28-.2-.76-.36-.72-.1-.37,0-.36-.09-.73a.79.79,0,0,1,.19.35c0-.4-.55-1.37-.29-1.7a8.84,8.84,0,0,1-.41-3.31c-.07.24-.09.24-.21,0a3.11,3.11,0,0,0-.22-1.73c.06-.42.08-1,.13-1.47.1.1,0,.76.18.63a1.5,1.5,0,0,1,0-1c-.09-.24-.11-.44-.25-.27L98.38,62c.15.22,0,.69.19.64-.07,1.33.32,2.49.1,3.32a3,3,0,0,1,.08,1.35c.28.22.27.69.26,1.34.31.05.33-.21.74-.13a2.65,2.65,0,0,1,.13-.72,4.41,4.41,0,0,1-.25-1.68c-.27.53-.27-1.48-.08-1.1-.09-.42-.26-.6-.35-1s.14-.19.16-.47c-.17-.06-.13-.69-.11-1.21.07,0,.07.1.07.24a25.4,25.4,0,0,0,.1-3c0-.14.08-.09.13-.1a14.68,14.68,0,0,1,.34-4.23c0,.06-.09.11-.15.09A5.69,5.69,0,0,0,99.86,54a20.59,20.59,0,0,0-.67,2.71c-.14-.49.22-1.4.07-1.87.14.61.21-.41.15-.71.23-.42.21-.91.45-1.39,0-.19-.23.26-.16,0-.2.29-.34,1.89-.66,2-.12.49.06,0,.13.16-.09.41-.25.3-.35.54.22-.59.19-1.48.44-1.77a12.31,12.31,0,0,1,1.19-4.12c-.16.09,0-.22-.08-.29.45-.92.78-2.43,1.3-2.64.1-.23-.12-.11-.15-.19-.75,1.24-.9,2.42-1.5,3.36-.09-.08.24-.84,0-.53a48.4,48.4,0,0,1,2-4.88c-.06-.25-.24.47-.31.39.82-1.56,1.59-3.59,2.54-4.49,0-.16-.25.32-.33.24.58-.74.53-1.51,1.28-2.11a2.41,2.41,0,0,0,.07-.4,14.06,14.06,0,0,0,1-1.27c-.05,0-.16.16-.25.27s.06-.14.11-.22c-.44.19.06-.53.77-1.36a26.16,26.16,0,0,1,1.94-2c.1-.14,0,0-.06-.06,1.22-1.4,2.5-2.57,3.94-4,.14-.1.06,0,0,.14.28-.27,1.19-1.47,1.87-1.64-.06,0-.21.09-.27.06.35-.25.45-.12.82-.39,0-.1-.14,0-.21,0,.6-.66,1.38-.92,1.68-1.32a6.16,6.16,0,0,0,.56-.29c.24,0-.24.25-.08.3a2,2,0,0,1,.48-.39c-.11,0-.13,0-.27,0s.31-.15.25-.29c.2-.06.48-.24.62-.22s0-.14,0-.2A20.45,20.45,0,0,1,121.9,23a6.09,6.09,0,0,1,2.25-1.4c-.41,0,.71-.44.82-.59l.25-.08c.23.06-.28.21-.14.28a2.6,2.6,0,0,0,.8-.66c-.3.29-.25.08-.82.36a5.45,5.45,0,0,1,1.29-.55c.06.06-.08.14-.25.22a15.48,15.48,0,0,0,2.49-1.12c.52-.08-.13.18.35.17a6.2,6.2,0,0,0-2.4,1.11c.51-.25.74-.26.87-.19a8,8,0,0,0,1.38-.62,5.07,5.07,0,0,1,.76-.15c1.18-.52,2.64-.75,3.43-1.24-.39.09-.28.22-.6.21a2.51,2.51,0,0,1,1-.31s0,.07-.1.11a31.08,31.08,0,0,0,3.32-.78c.75,0,2.19-.5,2.76-.33a2.17,2.17,0,0,1,.85-.34c0,.1.42.14.5-.06.72,0,1.52-.1,2.33-.17l.08.79a12.64,12.64,0,0,0,1.39-.16c.23.08-.08.09.14.14-.46,0-1.09.08-1.52.09v.19l.37-.17a15.08,15.08,0,0,0,1.65,0h-.38a.67.67,0,0,0,.25,0c-.43-.21.47-.25,1.58-.21s2.42.2,2.86.25c.18,0,0,0,0-.08,1.9.08,3.65.33,5.69.58.17,0,0,.06-.14,0a6.87,6.87,0,0,1,2.51.41c0-.07-.21-.11-.23-.17.43.11.38.26.84.36.07-.06-.07-.11-.11-.16a21.15,21.15,0,0,1,2.13.44,5.71,5.71,0,0,0,.6.24c.14.17-.36,0-.29.1a2,2,0,0,1,.61.13c-.09-.06,0-.12-.21-.18.06-.06.31.14.39,0,.17.12.5.21.57.33s.12-.07.16-.11A22.36,22.36,0,0,1,166,21a6.79,6.79,0,0,1,2.53.81c-.28-.28.81.25,1,.24l.22.14c.11.19-.35-.09-.31,0a3.18,3.18,0,0,0,1,.19c-.41,0-.22-.12-.81-.37a5.82,5.82,0,0,1,1.27.6c0,.11-.28,0-.51-.12a27,27,0,0,0,2.65,1.2c.41.32-.22,0,.1.33A7.05,7.05,0,0,0,170.76,23c.53.22.68.38.72.51a8.1,8.1,0,0,0,1.37.63,5.73,5.73,0,0,1,.61.44c1.17.55,2.28,1.45,3.18,1.73-.32-.22-.35-.07-.55-.3a2.62,2.62,0,0,1,.86.5h-.15a31.77,31.77,0,0,0,2.76,1.91c.47.53,1.81,1.26,2.05,1.75a2.54,2.54,0,0,1,.8.41c-.09,0,.17.37.38.31.7.73,1.59,1.49,2.41,2.27a11.52,11.52,0,0,1,2,2.3c.18.18.24.12.42.3-.05,0-.16-.07-.2,0,.36.18.53.52.73.67,0,0-.36-.61.11-.09-.11-.22-.55-.44-.94-1a4.69,4.69,0,0,1,.54.5c0-.15-.35-.38-.49-.54a8.17,8.17,0,0,1,1.25,1.19c-1.73-2.15-4.2-4.16-6.17-6.15a6.27,6.27,0,0,0-.76-.45c-.18-.17,0-.16-.32-.39-.24.09-.63-.69-.74-.45-.18-.27-.45-.54-.56-.69a.84.84,0,0,0-.46-.22c.14,0-.31-.35-.8-.69a8.33,8.33,0,0,1-1.06-.78A17.6,17.6,0,0,1,176,25.55c.28-.09,1.51.79,1.73,1a10.94,10.94,0,0,1,2,1.27c.16,0-.3-.28-.21-.33s.14,0,.17,0c.46.34,1.08.78,1.14,1a31,31,0,0,0,2.88,2,6.36,6.36,0,0,0,.79.8c.33.24-.22-.26-.35-.36a7.55,7.55,0,0,1,1.61,1.4c-.1,0-.45-.42-.66-.58-.05.23.66.65,1.12,1.17a1.21,1.21,0,0,0-.31-.39,10.53,10.53,0,0,1,1.91,1.8c0,.18-.29-.27-.28-.1s.56.38.42.46a3.86,3.86,0,0,1,1.07,1.2c.13,0,.36.31.62.62-.36-.56-.9-1.08-1.55-1.93a4,4,0,0,1,1.14,1.17c.06-.23,1.32,1.71,1.78,1.77a35.88,35.88,0,0,1,2.5,3.41c-.44-.9.64.76,1,1.3,0,.2-.26-.25-.4-.36a1.35,1.35,0,0,0-.34-.65c-.14.08.58,1.21.8,1.25,1,1.59,1.49,2.59,2.3,3.68.12.3-.19-.21-.26-.29.33.57,1.28,2.65,1.79,3.75.45,1.29.79,1.89,1.36,3.4,0,0-.07-.13-.11-.22a47.29,47.29,0,0,1,2.2,9.24c.07,0,0-.32.1-.24.19.41.13,1.15,0,1a12,12,0,0,1,.29,2.78c0,1.25,0,2.61.09,3.52h.07s-.11.7,0,.36c-.16.93-.13,2.19-.28,3.19,0,.27.07.28.14.14l-.08.7c0,.36,0-.12-.14,0Zm-5.94,24.06c.2-.2.43-.54.55-.54-.22.34-.43.64-.56.68,0,0,.05-.09,0-.1Zm-3.77,3c.11-.1.23-.27.28-.26-.3.31-.28.4-.55.69,0-.14-.21.12-.26.08s.45-.65.56-.66c0,.15-.06.21,0,.22ZM104,79.4a1.19,1.19,0,0,1-.17-.68A1.46,1.46,0,0,1,104,79.4Zm-2.21-3.78a1.68,1.68,0,0,1-.17-.82C101.65,75,101.87,75.55,101.79,75.62ZM99.38,57.06a.89.89,0,0,1-.19.71A1.49,1.49,0,0,1,99.38,57.06Zm-.09-.26a2.11,2.11,0,0,1,.18-.84C99.36,56.39,99.47,56.72,99.29,56.8Zm0,3.79a1.26,1.26,0,0,1,0,.61c-.29,0-.18-.66,0-.61ZM169.42,22a11.42,11.42,0,0,1-1.86-.79A11.81,11.81,0,0,1,169.42,22Zm-.77-12.27.48.24c0,.16-.64-.16-.48-.23Zm.67-3.55.18.08h-.11Zm-1.89,5.21c0-.1.38.09.42,0a2.49,2.49,0,0,1,.65.42,3.18,3.18,0,0,0-1.07-.41Zm3.13,1.52c-.06-.05-.13-.08-.09-.1s1,.54.68.39-.31-.11-.49-.2l-.1-.08Zm-.41-4.14c.32.18,1.5.76,1.2.68a7.29,7.29,0,0,1-1.2-.67Zm-.21-2.1h0a.9.9,0,0,1,.2.1Zm.37-.1h0l-.21-.07h0l-.39-.15a5.93,5.93,0,0,1,.93.35Zm3.38,17.86c.08.15,1,.53.92.65-.38-.21-.85-.42-1.1-.59.3.2-.21-.25.18,0Zm.77.19a3.12,3.12,0,0,0,.76.45c0,.23-1-.56-.76-.44Zm3.67,2.59a4.94,4.94,0,0,1,1,.72,5.16,5.16,0,0,1-1-.71Zm.59-.36c-.24-.17-.34-.16-.64-.39,0-.17.61.28.64.4ZM178.37,18c.29.15.87.42.86.55C178.87,18.28,178.41,18.14,178.37,18Zm.9-7.1c.31.18.31.09.51.2,0,.07.3.24.33.33a5.28,5.28,0,0,0-.84-.58Zm6.83,10.71a24.59,24.59,0,0,1,2.36,2,11.53,11.53,0,0,1,2.08,2h0c-.49-.49-1.33-1.32-2.32-2.13,0,.17.2.18.53.5-.06.27-.6-.49-.81-.42-.6-.52.49,0-.29-.55l.21.21a2.77,2.77,0,0,1-.39-.22c-.07-.31-.77-.82-1.76-1.57.09,0,.71.39.39.13ZM192.87,29c-.54-.56-1.08-1.1-1.61-1.59-.19-.23.32.07,0-.34a2.74,2.74,0,0,1-.9-.72,4.29,4.29,0,0,1-1.08-.91h0c.13.11.24.21.41.33l.05,0a.09.09,0,0,0-.16,0l-.27-.26a.26.26,0,0,1,.14.06l-.33-.25c-.5-.49-1.06-1-1.69-1.59l-.07-.08h0l-.09-.08A6.07,6.07,0,0,1,189,24.84c0-.06-.15-.21-.14-.26.55.43.32.44.79.84a3.27,3.27,0,0,0-.85-1c.7.42,1,1.09,2,1.89.25,0,.74.53,1.12,1,.22-.17-.66-.72-.93-.91-.56-.62-.91-.86-1.58-1.51-.12-.11,0-.08,0,0-1-.89-.84-.46-2.29-1.82a9.34,9.34,0,0,1,1.54,1.12c.15.06.21,0,.35.07.51.38,1.12,1.14,1.58,1.42l-.08.12.37.19.06.07c.63.63,1.48,1.5,2.35,2.45a1.28,1.28,0,0,0-.55.1c.17.19.21.3.17.37ZM189,25.8c.13-.07.41.11.85.54v-.08a7,7,0,0,0,.71.6,11.75,11.75,0,0,1-1.5-1.49l1.3,1.16c.89.81,1.73,1.65,2.48,2.48a2.62,2.62,0,0,0-.4.11c-.23-.26-.45-.51-.63-.73ZM190.46,37a5,5,0,0,1-1-1.3A6.36,6.36,0,0,1,190.46,37Zm-3.59-13.49c-.13-.14-.28-.3-.23-.34.14.18.27.32.23.37Zm-.06.1c.21.11.18,0,.1,0a.18.18,0,0,0,.11,0c.21.2.46.41.69.62.49.51,1,1,1.49,1.53a1.87,1.87,0,0,1-.72-.43c-.65-.83-1.7-1.41-2.62-2.34l-.05,0c-1-.78-2-1.49-3-2.16l-1.29-1a34.61,34.61,0,0,1,5.29,3.76Zm6.47-2a.62.62,0,0,1,.25.18h-.07Zm1.16,9.06c.07.1.15.19.22.28l-.23.2c-.33-.27-.21-.52,0-.45Zm1,2.28.08.09-.08-.08c-.2-.29-.41-.59-.65-.89h0a3.81,3.81,0,0,0,.65.72c-.19-.16,0,.1,0,.16Zm0-.18.09.08V33Zm.84,1.15c.19,0,.43.34.65.64a.18.18,0,0,1-.18,0,6.59,6.59,0,0,0-.42-.61Zm6,40.73c0-.38-.08.33-.14.21a6.31,6.31,0,0,0,.23-1.29c.2,0,0,1,0,1.11Zm-.12-44.58c0,.53-.31,1-.92.47-.08,0-.1-.4-.18-.52-.2-.32-.79-.92-1.21-1.5s-.38-.91-.95-1.26c0-.51-1.31-1.8-2-2.71-.22-.29-.21-.53-.42-.83a12.35,12.35,0,0,0-2.26-2c-.14.26-.42.11-.65.09a6.13,6.13,0,0,1-.42-.53c0,.14-.47-.25-1-.7a4.53,4.53,0,0,1-1-1.13c-.42-.37-.81-.42-.88-.69a7.72,7.72,0,0,1-1.48-1c0-.08.15,0,.29.15-.16-.29-1.48-.83-1.79-1.36a.4.4,0,0,1-.16,0c-.1,0,.08,0-.2-.26s-.19-.06-.23,0l-.13-.14c.08,0,.13,0,.05-.21a12.5,12.5,0,0,0-1.7-1.36c-.55-.43-1.1-.85-1.68-1.28l.75.43a6.79,6.79,0,0,0-1.36-.84c-.23-.15-.44-.32-.67-.46a1.2,1.2,0,0,0-.32-.14c-.76-.51-1.94-1.13-1.7-1.3A7.87,7.87,0,0,1,178,9.76c-.7-.19.7.49.77.64-.27.05-.79-.56-1.32-.68-.47-.3.52.13.09-.15-1.34-.67-3.28-1.37-4.52-2a2.63,2.63,0,0,1,.63.24c-.42-.25-.35-.19-.41-.33s-.76-.27-.3-.13c-.34-.21-1.23-.33-1.73-.61.08,0,.14.11.12.15l-.62-.24a.87.87,0,0,1,.33.06l-1.63-.58a6.33,6.33,0,0,0-1.12-.38L168,5.59l-.23-.17c-.32-.32-.5-.13-.68-.14h-.18c-.32-.14-.6-.41-1.06-.31h-.07c.28-.51-.5-.31-.83-.61a.37.37,0,0,0,.18,0l.74.25a.44.44,0,0,0,.14.19,3.7,3.7,0,0,0,.86.15l.86.28a.68.68,0,0,0,.41.31.21.21,0,0,0,0-.19c.54.18,1.08.36,1.62.56a4.25,4.25,0,0,0,1.57.82,2.56,2.56,0,0,0-.66-.48l.76.29h.06c.14.19.15.45.74.4V6.86l.57.25s.08.07.09.11a.71.71,0,0,0,.21,0c1,.46,2,.92,2.71,1.22a31.15,31.15,0,0,0,3,1.47A65.29,65.29,0,0,1,185.7,14c0-.07-.21-.2-.2-.27s.48.31.7.43-.45-.27-.36-.06c1,.72,3,2.12,4.08,3,0-.08-.41-.36-.32-.39.61.44.35.57,1,.88,0-.06-.17-.23-.47-.44a13.94,13.94,0,0,1,1.53,1.23.34.34,0,0,1-.17-.06c.35.28,1.06.85,1.68,1.39a5.67,5.67,0,0,1,1.19,1.22c.24.22.22.07.53.4s.19.27.14.31a5.32,5.32,0,0,1,1,.85c.61.59,1.28,1.33,1.55,1.62,0-.29-1.23-1.35-1.3-1.64A24.12,24.12,0,0,1,199,25.62a25.92,25.92,0,0,1,3.11,3.6c.21.27.4.55.61.83h-.06c.46.49,0,.52.24.93-.34,0-.26-.5-.68-.83Zm1,1.92a.39.39,0,0,1,.28-.41c.18.28.31.25.49.52-.24-.07-.42.41-.74-.08Zm4.52,41c.08,0,.14.1.17.24a4,4,0,0,1,0,.6v.07a5.89,5.89,0,0,1-.14-.9Zm0,1.84V75h0l0-.13Zm-.25-36.24c.48.66.4,1.61-.09,1,.12-.29-.16-.82.14-1Zm.1,38.13h0v.16h0s0-.1,0-.15Zm-.19-38.47c-.15.26-.45-.4-.59-.67s-.39-1,0-1c.32.62,0,1.18.64,1.68Zm-.22,39.47c-.1.25.09.49.07.69h0a.26.26,0,0,1-.13.17c0-.12-.21-.7.11-.85Zm-.33-1s-.06,0-.09-.09a5,5,0,0,0,.19-1H207v.17c0,.43-.12.51-.13,1Zm-.91-42.29a15.83,15.83,0,0,1,.82,1.41c-.14-.23-.28-.45-.4-.67s-.26-.44-.42-.7c0,0,0,0,0,0Zm0,.58c.26.56.49.58.72.8-.13.15-.28-.1-.42-.15-.14.21-.23.53-.59-.06a.37.37,0,0,1,.34,0c-.18-.27-.2-.46,0-.54Zm-.62,47.26v.2l-.07.05.11-.2Zm0,1.53a5.85,5.85,0,0,0,0-1.38h0a3.29,3.29,0,0,0,0-.42,17,17,0,0,0,.69-2.71,1.15,1.15,0,0,1,0,.41c.26-.42.63-.08.85-.26a.66.66,0,0,0,.15-.21c-.28,1.29-.58,2.56-.93,3.81-.15-.12-.25-.4-.39-.52l-.08.29-.09.28c.29-.11.49,0,.45.39l-.06.18c-.23,0,0-.5-.34-.4a1.55,1.55,0,0,1-.54,1.38c0-.25.3-.47.38-.79Zm.88.12c.39.07-.2.86-.32,1,.18-.29.18-.74.41-1Zm.88.43c-.07.28-.21.29-.28.55.21.12.13.67.07,1s-.22.33-.34.69-.13.88-.25,1.21-.2.16-.26.41-.48,1.46-.86,1.31c.22-.36-.08-.35-.09-.54a2.46,2.46,0,0,1,.69-1.2c-.11-.09,0-.35,0-.5a6.1,6.1,0,0,0,1.05-2.7c.25.24.4-.77.36-.18Zm.8-1.36c.05-.38-.26-.42,0-1,.27.15.4.87.09,1.05Zm-.14-2.1c.08-.44.41-1.41.46-1.14s-.31,1.51-.37,1.2Zm1.17-6.74c0,.33-.17.28-.32.27a2.31,2.31,0,0,0,0,.91c.14,0,.13-.37.17-.59.4.29-.15.8-.32,1a2,2,0,0,0,.22,1.11c-.11.29-.49,0-.48.53.05.28.24.38.39.54-.12.18-.35.13-.46.38-.33,1.38-.65,3.26-1.21,5-.07.35-.31.09-.41.36a.85.85,0,0,1,0-.64.25.25,0,0,1-.23.07c.16-.56.32-1.12.46-1.68.21-.88.4-1.76.56-2.62a6.8,6.8,0,0,1,.41-1.34c0-.25,0-.52-.09-.61v-.3a2,2,0,0,0,.15-.29c.17.06.18.29.1.62a3.56,3.56,0,0,0,.26-1.79c-.22.09-.27.07-.33,0s0-.36.05-.54a.45.45,0,0,0,0-.47h0c.1,0,.16,0,.2-.13.29.08-.29,1.22.17,1.09a6.81,6.81,0,0,0,.09-1.81c.12-.55.33,0,.5-.25,0,.47-.3.82-.11,1.21A.39.39,0,0,0,209,74a.7.7,0,0,1,.24.49c-.1.54-.1-.3-.33-.21Z" transform="translate(0 -0.11)"/><path class="cls-1" d="M79.31,50.07a.11.11,0,0,1,0,.06h0Z" transform="translate(0 -0.11)"/><path class="cls-1" d="M111.26,19.81h0l.14-.1Z" transform="translate(0 -0.11)"/><path class="cls-1" d="M102.3,15.72c0,.06,0,.09-.17.24l1.94-1.44h0a6,6,0,0,1-1.15.72A2.79,2.79,0,0,1,102.3,15.72Z" transform="translate(0 -0.11)"/><path class="cls-1" d="M151.7,129.59h-.22C151.63,129.64,151.69,129.62,151.7,129.59Z" transform="translate(0 -0.11)"/><path class="cls-1" d="M128.91,105h0Z" transform="translate(0 -0.11)"/><path class="cls-1" d="M155.39,112.56Z" transform="translate(0 -0.11)"/><path class="cls-1" d="M156.2,112.07a2.88,2.88,0,0,1-.74.49C155.92,112.6,156.16,112.44,156.2,112.07Z" transform="translate(0 -0.11)"/><path class="cls-1" d="M156.2,111.75a1.14,1.14,0,0,1,0,.32C156.34,111.93,156.38,111.81,156.2,111.75Z" transform="translate(0 -0.11)"/><path class="cls-1" d="M161.81,122.92c-.56-.07-.54.09-.34.15l.58.06C162.1,123,161.67,123,161.81,122.92Z" transform="translate(0 -0.11)"/><path class="cls-1" d="M173.23,120.19c-1.06.22-.39.39-.74.58.42-.1.46-.17.85-.28C173.11,120.37,172.68,120.49,173.23,120.19Z" transform="translate(0 -0.11)"/><path class="cls-1" d="M173.78,120.42a26.81,26.81,0,0,0,3.64-1C176.28,119.71,173.8,120,173.78,120.42Z" transform="translate(0 -0.11)"/><path class="cls-1" d="M77.35,64v-.94C77.05,62.71,77,64.23,77.35,64Z" transform="translate(0 -0.11)"/><path class="cls-1" d="M77.88,62.85a1.07,1.07,0,0,1-.18.77c.13,0,.15.11.18.26C77.89,63.53,77.9,63.21,77.88,62.85Z" transform="translate(0 -0.11)"/><path class="cls-1" d="M77.89,64.64v-.08h-.16a1,1,0,0,0,.13.29Z" transform="translate(0 -0.11)"/><path class="cls-1" d="M77.68,64.94v.36c-.22.37-.56.51-.65,1.09.4.32.33-.52.43-.72s.18,0,.22,0,.13-.41.11-.37h0v-.22C77.79,65,77.71,65,77.68,64.94Z" transform="translate(0 -0.11)"/><path class="cls-1" d="M87.19,30.55Z" transform="translate(0 -0.11)"/><path class="cls-1" d="M77.52,62.64a1.22,1.22,0,0,0,0-.17,5.64,5.64,0,0,1-.15-1.64.21.21,0,0,0-.14-.07c-.18.45.14.55.16,1,0,.18-.37.87,0,.94h0Z" transform="translate(0 -0.11)"/><path class="cls-1" d="M111.39,19.85h-.1L111,20a.26.26,0,0,1,.15,0l.07,0Z" transform="translate(0 -0.11)"/><path class="cls-1" d="M111.26,19.81a.56.56,0,0,0-.27.08v0Z" transform="translate(0 -0.11)"/><path class="cls-1" d="M111.61,19.77h-.08v.07Z" transform="translate(0 -0.11)"/><path class="cls-1" d="M112.26,19.35l.06-.09a.39.39,0,0,0-.08.1Z" transform="translate(0 -0.11)"/><path class="cls-1" d="M90.6,26.78a.16.16,0,0,0-.11.06l-.46.57a3.69,3.69,0,0,0-.24.43C90.09,27.55,90.16,27.31,90.6,26.78Z" transform="translate(0 -0.11)"/><path class="cls-1" d="M80.08,47.52c.18-.91.6-2,.83-3.09-.24.32-.28,1-.51,1.19l-.12.42a5.31,5.31,0,0,1-.4,1.42Z" transform="translate(0 -0.11)"/><path class="cls-1" d="M79.07,50.56a1.72,1.72,0,0,1-.13.48.24.24,0,0,1,0-.08,5.18,5.18,0,0,0-.23,1.27q.28-1.06.6-2.1A3.62,3.62,0,0,0,79.07,50.56Z" transform="translate(0 -0.11)"/><path class="cls-1" d="M98.74,18.93l.14-.08c.26-.29-.1,0-.21,0l-.14.12C98.63,18.9,98.69,18.9,98.74,18.93Z" transform="translate(0 -0.11)"/><path class="cls-1" d="M109,11.38a4,4,0,0,0,.55-.37c-.26.11-.59.17.07-.19-.53.25-1.39.83-2.13,1.29C107.84,12.09,108.81,11.18,109,11.38Z" transform="translate(0 -0.11)"/><path class="cls-1" d="M104.07,14.52c0,.06-.07.11,0,.14l.54-.36a.61.61,0,0,0-.32.12l1.16-.74.71-.58C105.52,13.47,104.83,14,104.07,14.52Z" transform="translate(0 -0.11)"/><path class="cls-1" d="M111.19,10q.3-.25.62-.46l-.34.12a4.17,4.17,0,0,0-.76.49C110.7,10.26,111.35,9.75,111.19,10Z" transform="translate(0 -0.11)"/><path class="cls-1" d="M102,16.06l.1-.1h0c0-.09.09-.17.21-.27v-.06c.08,0,.68-.44.27-.2a1.78,1.78,0,0,1,.37-.26h0c-.14-.08-.79.54-1.22.88-.12.24.14.1.23.16l.63-.54A5.67,5.67,0,0,0,102,16.06Z" transform="translate(0 -0.11)"/><path class="cls-1" d="M95.44,21.71c.36-.34.27-.4.65-.74-.06,0-.53.35-.49.45s-.13.06-.17.07C95.12,21.87,95.34,21.66,95.44,21.71Z" transform="translate(0 -0.11)"/><path class="cls-1" d="M99.23,18.24c.26-.07.35-.26.92-.72C100.13,17.32,99.52,18,99.23,18.24Z" transform="translate(0 -0.11)"/><path class="cls-1" d="M95,22.21c-.09,0-.18.1-.06-.06s-.4.43-.58.59A1.46,1.46,0,0,0,95,22.21Z" transform="translate(0 -0.11)"/><path class="cls-1" d="M92.12,25c-.21,0-.41.53-.79.87C91.38,26.07,91.85,25.28,92.12,25Z" transform="translate(0 -0.11)"/><path class="cls-1" d="M109.58,10.85a1.55,1.55,0,0,0,.78-.32A1.25,1.25,0,0,0,109.58,10.85Z" transform="translate(0 -0.11)"/><path class="cls-1" d="M79.31,50.07l.3-.89c.14-.64.26-1.16.31-1.53A5.38,5.38,0,0,0,79.31,50.07Z" transform="translate(0 -0.11)"/><path class="cls-1" d="M120.24,24.12c.2,0,.66-.27.5-.34C120.54,23.89,120.05,24.08,120.24,24.12Z" transform="translate(0 -0.11)"/><path class="cls-1" d="M143.35,9.28l.51-.12A.78.78,0,0,0,143.35,9.28Z" transform="translate(0 -0.11)"/><path class="cls-1" d="M56.73,28.91s-20.06-2.46-26-2.46H17.59a3.86,3.86,0,0,0-3.94,3.78h0L13.48,60a1.13,1.13,0,0,0,1.11,1.15h0l29.77-.82c.82,0,1.64.33,1.64,1.15V69.2c0,.82-.82,1.15-1.64,1.15l-29.77-.82a1.13,1.13,0,0,0-1.15,1.11s0,0,0,0l.34,44.07c0,1.32-.67,2-2.15,2H2.14c-1.48,0-2.14-.65-2.14-2L.17,67.39,0,20c0-1.31.66-2,2.14-2H56.73c1.31,0,2.47.33,2.47,1.64v7.73C59.2,28.75,58,29.08,56.73,28.91Z" transform="translate(0 -0.11)"/><path class="cls-1" d="M317.87,116.72h-12.5c-1.47,0-2.13-.82-2.79-2l-23-37.66c-2.63-4.27-5.26-6.57-8.39-6.57h-11c-1.49,0-3.13,1.15-3.13,2.63l.17,41.6c0,1.32-.66,2-2.14,2h-9.54c-1.48,0-2.14-.65-2.14-2l.17-47.36L243.38,20c0-1.31.17-2,1.48-2h39.63c14.47,0,26.15,9.87,26.15,23.35,0,13.65-9.71,24-23.35,27.13-1,.17-1,.82-.33,1.32,1.31,1,3,3.12,6.08,7.73l21.71,30.91,4.6,6.25C320.18,115.9,319.19,116.72,317.87,116.72ZM278.74,24.64H261.47c-2.14,0-4.27,1.64-4.27,3.78L257,61.14a3.34,3.34,0,0,0,3.13,3H272c14.63,0,23.84-5.75,23.84-21.54C295.84,32.2,288.93,24.64,278.74,24.64Z" transform="translate(0 -0.11)"/><path class="cls-1" d="M431.34,116.72h-58c-1.48,0-2.14-.65-2.14-2l.17-47.36L371.15,20c0-1.31.66-2,2.14-2h56.24c1.31,0,2.46.33,2.46,1.64v7.73c0,1.32-1.15,1.65-2.46,1.48,0,0-17.6-2.46-26-2.46H388.75a3.86,3.86,0,0,0-3.95,3.77h0l-.16,29.92a1.13,1.13,0,0,0,1.1,1.16h.05L417,60.48c.82,0,1.64.33,1.64,1.15v7.73c0,.82-.82,1.16-1.64,1.16l-31.24-.83a1.12,1.12,0,0,0-1.15,1.09s0,0,0,.06l.16,33.55a4,4,0,0,0,4,3.94h14.79c8.39,0,27.8-3.12,27.8-3.12,1.31-.16,2.46.17,2.46,1.48v8.39C433.8,116.39,432.65,116.72,431.34,116.72Z" transform="translate(0 -0.11)"/><path class="cls-1" d="M523.59,116.07c-.33,1-3.29,1.64-4.94,1.64s-4.6-.66-4.93-1.48L479.72,31,475,20c-.49-1.31,0-2,1.32-2h12.5a2.88,2.88,0,0,1,3,2l4.11,11,23.6,67.25a1.54,1.54,0,0,0,2.46,0L547.43,20c.49-1.48,1-2,2.47-2h8.55c1.48,0,1.64,1.15,1.15,2.47Z" transform="translate(0 -0.11)"/><path class="cls-1" d="M669.92,116.72h-58c-1.48,0-2.14-.65-2.14-2l.17-47.36L609.74,20c0-1.31.66-2,2.14-2h56.23c1.32,0,2.47.33,2.47,1.64v7.73c0,1.32-1.15,1.65-2.47,1.48,0,0-17.59-2.46-26-2.46h-14.8a3.86,3.86,0,0,0-3.94,3.78h0l-.17,29.92a1.13,1.13,0,0,0,1.1,1.16h.05l31.25-.83c.82,0,1.64.33,1.64,1.15V69.3c0,.82-.82,1.16-1.64,1.16l-31.25-.83a1.13,1.13,0,0,0-1.15,1.11s0,0,0,0l.17,33.55a4,4,0,0,0,3.94,3.94h14.8c8.39,0,27.79-3.12,27.79-3.12,1.32-.16,2.47.17,2.47,1.48V115C672.39,116.39,671.24,116.72,669.92,116.72Z" transform="translate(0 -0.11)"/><path class="cls-1" d="M801.63,116.72h-12.5c-1.47,0-2.14-.82-2.79-2l-23-37.66c-2.63-4.27-5.26-6.57-8.39-6.57H744c-1.48,0-3.12,1.15-3.12,2.63l.17,41.6c0,1.32-.66,2-2.14,2h-9.54c-1.48,0-2.14-.65-2.14-2l.17-47.36L727.14,20c0-1.31.17-2,1.48-2h39.63c14.47,0,26.15,9.87,26.15,23.35,0,13.65-9.71,24-23.35,27.13-1,.17-1,.82-.33,1.32,1.31,1,3,3.12,6.08,7.73l21.71,30.91,4.6,6.25C803.93,115.9,803,116.72,801.63,116.72ZM762.5,24.64H745.23c-2.14,0-4.27,1.64-4.27,3.78l-.17,32.72a3.34,3.34,0,0,0,3.12,3h11.84c14.64,0,23.85-5.75,23.85-21.54C779.6,32.2,772.69,24.64,762.5,24.64Z" transform="translate(0 -0.11)"/><path class="cls-1" d="M814.24,32.89a7.87,7.87,0,1,1,8-7.87,7.87,7.87,0,0,1-8,7.87Zm0-15a7.12,7.12,0,1,0,7,7.24s0-.08,0-.12a7.07,7.07,0,0,0-7-7.11Zm4,11.59h-1.68c-.12,0-.18-.09-.24-.18l-1.86-3.42a.94.94,0,0,0-.78-.6h-.54a.27.27,0,0,0-.3.24h0V29.3c0,.12-.09.18-.21.18H811.3a.16.16,0,0,1-.18-.14.16.16,0,0,1,0,0V20.66c0-.12,0-.18.12-.18h3.94a2.22,2.22,0,0,1,2.37,2.06v.07a2.56,2.56,0,0,1-2.13,2.5c-.09,0-.09,0,0,.09a4,4,0,0,1,.57.72l2,2.82.42.57c.06.09,0,.18-.15.18Zm-4-8.41h-1a.42.42,0,0,0-.39.36v3a.3.3,0,0,0,.3.27h.51c1.32,0,2.13-.54,2.13-2a1.53,1.53,0,0,0-1.44-1.62h-.11Z" transform="translate(0 -0.11)"/></svg>